<?xml version="1.0" standalone="no"?>
<!DOCTYPE svg PUBLIC "-//W3C//DTD SVG 1.1//EN" "http://www.w3.org/Graphics/SVG/1.1/DTD/svg11.dtd" >
<svg>
<metadata>
Created by FontForge 20120731 at Sun Jun 30 01:39:09 2019
 By www
Copyright (c) 1990 Adobe Systems Incorporated. All rights reservedMonotype Centaur is a trademark of the Monotype Corporation plc
</metadata>
<defs>
<font id="MtCentaur" horiz-adv-x="667" >
  <font-face 
    font-family="Centaur"
    font-weight="500"
    font-stretch="normal"
    units-per-em="1000"
    panose-1="0 0 0 0 0 0 0 0 0 0"
    ascent="800"
    descent="-200"
    x-height="360"
    cap-height="633"
    bbox="-182 -281 1091 855"
    underline-thickness="50"
    underline-position="-75"
    stemh="24"
    stemv="59"
    unicode-range="U+0020-FB02"
  />
<missing-glyph horiz-adv-x="245" 
 />
    <glyph glyph-name=".notdef" horiz-adv-x="245" 
 />
    <glyph glyph-name="space" unicode=" " horiz-adv-x="245" 
d="M180 0z" />
    <glyph glyph-name="exclam" unicode="!" horiz-adv-x="208" 
d="M112 163l-20 3c3 77 4 163 4 244c0 10 0 59 -2 79c-1 9 -5 21 -13 25c-4 3 -11 8 -11 12s4 7 10 8c14 5 87 34 89 34c5 0 6 -3 6 -7c0 -2 0 -5 -1 -9l-46 -279c-5 -29 -9 -60 -14 -99c-1 -1 -2 -9 -2 -11zM38 44c0 7 7 11 13 15c20 11 29 26 37 40c2 3 5 8 13 8
c12 0 17 -18 17 -19c1 0 11 -21 32 -32c12 -6 12 -7 12 -14c0 -6 -1 -8 -8 -12c-13 -6 -22 -11 -39 -38c-4 -7 -7 -11 -14 -11s-10 3 -15 10c-12 21 -17 28 -37 39c-7 4 -11 6 -11 14z" />
    <glyph glyph-name="quotedbl" unicode="&#x22;" horiz-adv-x="438" 
d="M132 340h-21l-26 144c-5 27 -11 54 -11 81c0 39 16 60 47 60c29 0 51 -22 51 -52c0 -16 -6 -52 -10 -73zM325 340h-21l-26 144c-5 27 -11 54 -11 81c0 39 16 60 47 60c29 0 51 -22 51 -52c0 -16 -6 -52 -10 -73z" />
    <glyph glyph-name="numbersign" unicode="#" 
d="M27 449v46h175l46 217h45l-46 -217h238l45 217h46l-46 -217h111v-46h-120l-44 -212h164v-46h-174l-44 -216h-46l45 216h-239l-43 -216h-47l45 216h-111v46h121l44 212h-165zM432 237l44 212h-239l-44 -212h239z" />
    <glyph glyph-name="dollar" unicode="$" horiz-adv-x="490" 
d="M233 672h24v-46c89 0 140 -42 161 -64c-8 -8 -34 -33 -45 -69l-18 2c3 66 -52 104 -98 108l-1 -235c93 -52 179 -101 179 -196c0 -69 -53 -166 -182 -172l1 -65c0 -8 -1 -10 -6 -10c-10 0 -19 0 -18 10v65c-37 3 -103 9 -190 127l53 76l15 -11c-4 -9 -5 -18 -5 -27
c0 -5 14 -127 127 -142l1 276c-68 36 -160 83 -160 179c0 64 58 140 161 148zM232 381l1 223c-79 -5 -107 -51 -107 -94c0 -65 61 -102 106 -129zM255 286l-1 -266c124 10 136 104 136 122c0 54 -45 99 -135 144z" />
    <glyph glyph-name="percent" unicode="%" horiz-adv-x="813" 
d="M203 646c78 0 146 -63 146 -156c0 -80 -52 -172 -151 -172c-77 0 -148 55 -148 158c0 101 71 170 153 170zM195 626c-63 0 -91 -69 -91 -132c0 -80 40 -156 100 -156c27 0 88 18 88 132c0 69 -30 156 -97 156zM624 310c78 0 147 -64 147 -157c0 -80 -53 -172 -152 -172
c-77 0 -148 56 -148 158s72 171 153 171zM616 289c-63 0 -91 -68 -91 -132c0 -79 40 -155 101 -155c26 0 88 17 88 132c0 69 -31 155 -98 155zM185 -48l-17 7c96 138 275 435 320 517c31 55 75 137 92 165c2 2 3 4 11 17c20 0 26 0 48 7c-167 -262 -381 -629 -413 -692
c-18 -1 -29 -6 -41 -21z" />
    <glyph glyph-name="ampersand" unicode="&#x26;" horiz-adv-x="635" 
d="M587 438l-2 -16c-43 -2 -47 -10 -87 -98c-18 -39 -45 -101 -64 -139c-12 -21 -13 -23 -15 -28c25 -65 64 -127 102 -127c33 0 56 42 65 58c12 21 13 24 20 24c3 0 10 -3 10 -10c0 0 -30 -106 -121 -106c-61 0 -96 67 -115 103c-58 -85 -122 -106 -189 -106
c-113 0 -156 94 -156 166c0 111 94 163 129 182c-59 34 -74 85 -74 112c0 94 136 131 138 131c11 0 50 -24 66 -37c22 -18 37 -48 37 -80c0 -28 0 -32 -36 -68c-10 -13 -29 -31 -40 -43c65 -33 93 -51 149 -167c4 10 28 54 30 59c23 42 52 120 57 166c-8 12 -12 18 -43 32
l7 16c41 -14 102 -22 132 -24zM228 371c30 15 57 43 57 78c0 41 -47 91 -94 91c-38 0 -71 -45 -71 -68c0 -31 39 -79 108 -101zM188 326c-70 -47 -94 -76 -94 -131c0 -153 124 -156 138 -156c60 0 102 34 135 86c0 1 -3 8 -4 9c-44 102 -76 157 -175 192z" />
    <glyph glyph-name="quoteright" unicode="&#x2019;" horiz-adv-x="198" 
d="M39 444l-11 15c31 19 65 43 65 78c0 10 -5 38 -32 46c-10 14 -12 19 -12 23c0 7 4 9 9 12c20 11 33 34 37 54h12c12 -22 18 -31 38 -43c0 -1 4 -3 5 -4c3 -1 6 -3 6 -9c0 -2 -1 -3 -3 -7c-6 -10 -6 -10 -8 -23c-9 -73 -46 -116 -106 -142z" />
    <glyph glyph-name="parenleft" unicode="(" horiz-adv-x="333" 
d="M308 -254l-15 -25c-174 110 -260 264 -260 473c0 246 122 398 262 478l12 -25c-86 -50 -245 -181 -245 -447c0 -257 136 -383 246 -454z" />
    <glyph glyph-name="parenright" unicode=")" horiz-adv-x="333" 
d="M27 647l15 25c174 -110 260 -264 260 -473c0 -246 -122 -398 -262 -478l-12 25c86 50 245 181 245 447c0 257 -136 383 -246 454z" />
    <glyph glyph-name="asterisk" unicode="*" horiz-adv-x="354" 
d="M16 552l9 16c18 -8 60 -26 112 -29c7 14 22 43 31 112h18c7 -61 22 -93 31 -112c19 1 53 4 113 29l8 -16c-22 -17 -56 -44 -80 -83c8 -13 27 -42 80 -82l-8 -16c-64 27 -97 28 -113 29c-11 -22 -24 -53 -31 -112h-18c-9 69 -23 96 -31 112c-24 -2 -56 -5 -112 -29l-9 16
c53 39 72 69 80 82c-9 15 -27 43 -80 83zM114 469c0 -34 27 -63 63 -63s63 29 63 63s-27 64 -63 64s-63 -30 -63 -64z" />
    <glyph glyph-name="plus" unicode="+" 
d="M54 318v46h256v258h46v-258h258v-46h-258v-255h-46v255h-256z" />
    <glyph glyph-name="comma" unicode="," horiz-adv-x="198" 
d="M40 -112l-10 16c21 13 64 38 64 76c0 5 0 30 -28 50c-12 9 -18 13 -18 27c34 18 42 45 46 60c4 0 7 0 11 1c12 -28 32 -38 34 -39c16 -7 19 -9 19 -16c0 -5 -12 -25 -13 -30l-2 -15c-13 -81 -76 -116 -103 -130z" />
    <glyph glyph-name="hyphen" unicode="-" horiz-adv-x="313" 
d="M35 161v53h242v-53h-242z" />
    <glyph glyph-name="period" unicode="." horiz-adv-x="198" 
d="M38 44c0 7 7 11 13 15c20 11 29 26 37 40c2 3 5 8 13 8c12 0 17 -18 17 -19c1 0 11 -21 32 -32c12 -6 12 -7 12 -14c0 -6 -1 -8 -8 -12c-13 -6 -22 -11 -39 -38c-4 -7 -7 -11 -14 -11s-10 3 -15 10c-12 21 -17 28 -37 39c-7 4 -11 6 -11 14z" />
    <glyph glyph-name="slash" unicode="/" horiz-adv-x="531" 
d="M29 -145l427 887h46l-428 -887h-45z" />
    <glyph glyph-name="zero" unicode="0" horiz-adv-x="490" 
d="M26 299c0 219 119 326 225 326c131 0 213 -138 213 -310c0 -180 -85 -321 -225 -321c-139 0 -213 154 -213 305zM99 344c0 -49 5 -325 154 -325c102 0 138 131 138 251c0 14 0 156 -43 250c-11 25 -45 81 -107 81c-46 0 -142 -33 -142 -257z" />
    <glyph glyph-name="one" unicode="1" horiz-adv-x="490" 
d="M105 -5l-1 21c37 0 81 5 93 45c15 47 16 292 16 359c0 28 0 113 -5 133c-7 30 -55 30 -101 30l-1 19c145 3 202 15 258 27l5 -19l-34 -8c-44 -10 -46 -33 -50 -68c-10 -98 -10 -197 -10 -295c0 -38 0 -182 16 -201c8 -8 19 -15 97 -22l-1 -20c-51 3 -67 4 -97 4
c-62 0 -124 -1 -185 -5z" />
    <glyph glyph-name="two" unicode="2" horiz-adv-x="490" 
d="M318 0h-232c-26 0 -45 -2 -68 -5c-2 4 -4 8 -6 11l71 73c102 103 249 265 249 372c0 77 -57 120 -123 120c-11 0 -76 0 -127 -55l-18 15c31 34 87 96 181 96c87 0 157 -57 157 -150c0 -94 -62 -164 -169 -276l-81 -86c-3 -4 -16 -17 -22 -24l-27 -29l154 -1
c123 -1 144 -1 196 94l18 -10l-55 -101c-6 -10 -30 -58 -36 -69l-15 1c-8 21 -23 24 -47 24z" />
    <glyph glyph-name="three" unicode="3" horiz-adv-x="490" 
d="M100 535l-14 17c48 41 100 73 163 73c75 0 132 -43 132 -113c0 -48 -25 -95 -78 -144c45 -28 123 -77 123 -173c0 -91 -80 -202 -219 -202c-52 0 -123 20 -170 85c8 12 32 54 48 81l19 -11c-7 -11 -12 -20 -12 -28c0 -28 77 -100 150 -100c69 0 128 60 128 134
c0 83 -64 127 -126 166l-31 -23l-13 18c54 42 118 93 118 163c0 57 -47 103 -107 103c-52 0 -92 -31 -111 -46z" />
    <glyph glyph-name="four" unicode="4" horiz-adv-x="490" 
d="M191 -6v23c88 0 88 11 92 141l1 34h-110c-32 0 -134 -6 -159 -7c-1 3 -3 6 -5 9c111 138 240 299 320 439c11 2 14 3 24 7c-2 -31 -4 -215 -4 -252l-1 -154l54 1c20 0 35 1 61 28l14 -6l-33 -70c-21 2 -74 3 -96 3c0 -149 0 -162 58 -174v-17c-18 1 -39 1 -63 1
c-53 0 -113 -2 -153 -6zM288 517h-2c-17 -27 -32 -48 -46 -66c-57 -76 -72 -97 -83 -111l-83 -106c91 -1 119 -1 211 0l2 86c1 46 1 77 1 197z" />
    <glyph glyph-name="five" unicode="5" horiz-adv-x="490" 
d="M72 159l15 -4c-1 -4 -1 -8 -1 -16c0 -76 109 -114 166 -114c85 0 118 108 118 148c0 104 -122 199 -268 204c5 29 15 58 25 84l58 155h171c32 0 47 0 66 22h21l-51 -83c-12 0 -62 2 -72 2l-41 1c-82 2 -97 -2 -133 -115c242 -53 285 -176 285 -241
c0 -104 -87 -211 -222 -211c-87 0 -133 40 -165 71c3 7 14 32 28 97z" />
    <glyph glyph-name="six" unicode="6" horiz-adv-x="490" 
d="M387 643l7 -18c-215 -84 -268 -258 -268 -369c0 -168 91 -242 153 -242c58 0 111 50 111 142c0 99 -63 184 -133 184c-36 0 -76 -30 -88 -39l1 22c64 44 81 55 125 55c83 0 156 -83 156 -178c0 -101 -78 -207 -191 -207c-105 0 -204 95 -204 245c0 138 67 325 331 405z
" />
    <glyph glyph-name="seven" unicode="7" horiz-adv-x="490" 
d="M58 500l-20 1c17 37 40 88 48 111c9 27 10 30 16 30c5 0 6 -3 7 -6c8 -17 19 -17 42 -17c15 0 80 2 93 2c16 0 74 -1 106 -1c67 0 100 5 115 8l6 -11c-122 -196 -210 -411 -291 -628c-5 1 -10 2 -15 2s-28 -8 -29 -8c-1 -1 -6 -2 -8 -2c-3 0 -10 2 -10 9c0 9 35 70 39 81
c43 79 125 251 140 283l74 158c3 7 19 39 19 42c-39 4 -96 7 -163 7c-62 0 -96 -3 -144 -15z" />
    <glyph glyph-name="eight" unicode="8" horiz-adv-x="490" 
d="M204 325c-93 52 -124 101 -124 160c0 75 58 145 162 145c103 0 165 -68 165 -134c0 -81 -80 -125 -110 -141c60 -32 149 -81 149 -191c0 -90 -80 -171 -204 -171c-110 0 -197 70 -197 154c0 102 114 158 159 178zM278 365c22 18 67 55 67 115c0 55 -37 128 -117 128
c-61 0 -109 -40 -109 -92c0 -64 67 -101 112 -126c31 -16 35 -18 47 -25zM225 314c-34 -19 -111 -60 -111 -141c0 -87 90 -156 153 -156c65 0 116 51 116 121c0 59 -31 121 -145 169c-8 4 -9 4 -13 7z" />
    <glyph glyph-name="nine" unicode="9" horiz-adv-x="490" 
d="M103 -21l-8 18c218 86 269 262 269 369c0 170 -94 242 -153 242c-61 0 -112 -53 -112 -141c0 -100 63 -185 133 -185c37 0 78 31 88 39v-22c-65 -43 -82 -55 -125 -55c-83 0 -156 83 -156 178c0 102 78 207 190 207c105 0 205 -94 205 -245c0 -60 -15 -183 -112 -279
c-82 -82 -176 -112 -219 -126z" />
    <glyph glyph-name="colon" unicode=":" horiz-adv-x="198" 
d="M37 328c0 7 7 11 13 15c20 11 29 26 37 40c2 3 5 8 13 8c12 0 17 -18 17 -19c1 0 11 -21 32 -32c12 -6 12 -7 12 -14c0 -6 -1 -8 -8 -12c-13 -6 -22 -11 -39 -38c-4 -7 -7 -11 -14 -11s-10 3 -15 10c-12 21 -17 28 -37 39c-7 4 -11 6 -11 14zM38 44c0 7 7 11 13 15
c20 11 29 26 37 40c2 3 5 8 13 8c12 0 17 -18 17 -19c1 0 11 -21 32 -32c12 -6 12 -7 12 -14c0 -6 -1 -8 -8 -12c-13 -6 -22 -11 -39 -38c-4 -7 -7 -11 -14 -11s-10 3 -15 10c-12 21 -17 28 -37 39c-7 4 -11 6 -11 14z" />
    <glyph glyph-name="semicolon" unicode=";" horiz-adv-x="208" 
d="M104 101h12c0 -1 8 -19 10 -22c13 -24 24 -45 24 -74c0 -68 -54 -111 -93 -135l-12 16c20 15 57 42 57 82c0 37 -30 41 -49 44c-3 1 -14 5 -14 13c0 6 5 9 7 11c15 10 45 30 58 65zM56 326c0 7 7 11 13 15c20 11 29 26 37 40c2 3 5 8 13 8c12 0 17 -18 17 -19
c1 0 11 -21 32 -32c12 -6 12 -7 12 -14c0 -6 -1 -8 -8 -12c-13 -6 -22 -11 -39 -38c-4 -7 -7 -11 -14 -11s-10 3 -15 10c-12 21 -17 28 -37 39c-7 4 -11 6 -11 14z" />
    <glyph glyph-name="less" unicode="&#x3c;" 
d="M613 135v-50l-558 237v41l558 236v-50l-498 -206z" />
    <glyph glyph-name="equal" unicode="=" 
d="M54 442v46h560v-46h-560zM54 200v46h560v-46h-560z" />
    <glyph glyph-name="greater" unicode="&#x3e;" 
d="M54 549v50l558 -237v-41l-558 -236v50l498 206z" />
    <glyph glyph-name="question" unicode="?" horiz-adv-x="281" 
d="M51 587l14 1c10 -42 21 -43 52 -47c45 -6 131 -43 131 -152c0 -64 -25 -127 -80 -159c-27 -16 -32 -18 -36 -60c-1 -15 -1 -18 -10 -18s-10 5 -10 13l5 86c1 21 7 22 46 30c57 12 57 39 57 90c0 62 -30 97 -136 109c-18 2 -42 4 -42 22c0 4 8 37 9 44c1 6 0 35 0 41z
M55 46c0 7 7 11 13 15c20 11 29 26 37 40c2 3 5 8 13 8c12 0 17 -18 17 -19c1 0 11 -21 32 -32c12 -6 12 -7 12 -14c0 -6 -1 -8 -8 -12c-13 -6 -22 -11 -39 -38c-4 -7 -7 -11 -14 -11s-10 3 -15 10c-12 21 -17 28 -37 39c-7 4 -11 6 -11 14z" />
    <glyph glyph-name="at" unicode="@" horiz-adv-x="979" 
d="M652 488l82 11l-61 -208c-1 -6 -6 -22 -11 -41c-24 -83 -37 -130 -37 -157c0 -10 8 -39 39 -39c98 0 221 149 221 339c0 183 -135 321 -338 321c-277 0 -447 -252 -447 -496c0 -251 174 -417 408 -417c144 0 323 66 419 289h30c-70 -214 -266 -320 -452 -320
c-256 0 -454 191 -454 462c0 295 226 509 493 509c253 0 372 -176 372 -357c0 -159 -98 -368 -288 -368c-46 0 -79 20 -79 72c0 29 5 53 9 74l-2 2c-42 -53 -121 -148 -203 -148c-66 0 -95 71 -95 121c0 163 169 365 287 365c45 0 78 -21 89 -71h2zM551 478
c-101 0 -210 -235 -210 -325c0 -36 23 -74 60 -74c88 0 215 164 215 324c0 38 -22 75 -65 75z" />
    <glyph glyph-name="A" unicode="A" horiz-adv-x="625" 
d="M422 -2v16c21 4 49 10 49 32c0 20 -18 69 -22 78l-36 98c-28 4 -64 4 -92 4h-39c-30 1 -74 -1 -102 -6l-36 -90c-19 -45 -24 -58 -24 -71c0 -20 9 -37 78 -47v-16c-24 3 -49 7 -97 7c-35 0 -65 -2 -89 -4v14c28 7 43 21 45 23c24 20 84 162 99 203l78 187
c29 67 61 142 79 204c0 2 2 8 3 9l16 1c15 -55 23 -76 33 -104l103 -275c31 -81 72 -191 95 -222c11 -16 32 -20 52 -22v-17c-20 2 -36 4 -77 4c-59 0 -100 -5 -116 -6zM267 438l-55 -142c-10 -27 -11 -30 -15 -38c37 -6 84 -6 85 -6l45 1c9 0 57 1 73 2
c-4 11 -17 49 -22 59l-35 90c-7 17 -38 89 -46 106c-11 -25 -25 -61 -30 -72z" />
    <glyph glyph-name="B" unicode="B" horiz-adv-x="510" 
d="M299 347v-2c149 -28 187 -111 187 -179c0 -169 -196 -169 -241 -169c-20 0 -108 3 -126 3c-31 0 -46 -1 -95 -4v18c29 3 57 7 63 39c11 52 12 313 12 329c0 48 0 171 -17 202c-11 21 -33 25 -57 29v19c26 -2 64 -4 91 -4c11 0 39 2 68 4c28 2 57 4 66 4
c93 0 173 -54 173 -151c0 -63 -36 -115 -124 -138zM161 409v-60c11 1 14 1 25 1c58 1 162 3 162 124c0 90 -64 138 -133 138c-11 0 -35 -1 -41 -8c-11 -9 -13 -164 -13 -195zM161 326v-191c0 -115 0 -115 85 -115c67 0 164 27 164 140c0 76 -52 170 -190 170
c-4 0 -38 -1 -59 -4z" />
    <glyph glyph-name="C" unicode="C" horiz-adv-x="625" 
d="M588 98c-4 -11 -21 -71 -21 -72c-50 -15 -114 -33 -189 -33c-162 0 -335 113 -335 327c0 228 193 322 354 322c63 0 113 -17 131 -24c9 -3 26 -9 44 -9c3 0 15 3 18 3c4 0 6 -4 6 -4c0 -1 -5 -26 -7 -28c-8 -28 -14 -62 -18 -93c-13 2 -15 8 -15 21c-1 31 -4 36 -8 42
c-16 25 -95 66 -172 66c-139 0 -250 -107 -250 -295c0 -241 194 -306 269 -306c114 0 152 67 180 117c6 11 8 14 13 14c4 0 9 -2 9 -9c0 -8 -7 -32 -9 -39z" />
    <glyph glyph-name="D" unicode="D" horiz-adv-x="719" 
d="M25 605l-1 18c73 0 147 2 220 11c26 3 41 4 69 4c192 0 368 -118 368 -316c0 -180 -145 -320 -369 -320c-12 0 -65 2 -76 2c-27 0 -144 -3 -168 -3l-48 1v18c30 0 54 4 63 23c12 27 12 196 12 243c0 169 -2 277 -17 302c-8 12 -28 18 -53 17zM596 321
c0 195 -160 294 -296 294c-42 0 -89 -8 -127 -25c-8 -42 -10 -322 -10 -397c0 -20 3 -119 3 -141c52 -17 82 -28 142 -28c215 0 288 160 288 297z" />
    <glyph glyph-name="E" unicode="E" horiz-adv-x="563" 
d="M525 143h15c-12 -75 -20 -104 -41 -148c-19 2 -73 3 -122 3s-94 2 -95 2c-93 0 -200 -4 -263 -7l1 17c57 12 59 13 65 54c7 49 12 219 11 252l-3 155c-3 134 -7 134 -66 146c0 6 0 8 1 13h313c34 0 106 2 159 4c-2 -36 -10 -126 -25 -126c-3 0 -12 1 -12 7s4 32 4 37
c0 54 -99 55 -145 55c-67 0 -111 -5 -150 -10c-4 -36 -9 -78 -9 -136c0 -42 0 -110 1 -127c12 -1 40 -1 72 -1c51 0 113 1 142 4c36 4 41 4 59 66l14 -1c0 -53 -1 -99 -1 -183h-17c-3 86 -21 90 -181 90c-49 0 -69 -2 -88 -5l-2 -69c-1 -39 -1 -140 9 -196
c19 -5 43 -15 127 -15c154 0 196 31 227 119z" />
    <glyph glyph-name="F" unicode="F" horiz-adv-x="510" 
d="M12 615v15l63 1c11 0 49 -1 89 -2c39 -1 80 -3 94 -3c83 0 173 3 222 7c-4 -41 -4 -78 -3 -123h-20c-5 64 -7 94 -179 94c-33 0 -84 0 -111 -7c-4 -53 -4 -156 -4 -179v-77c47 -4 63 -5 111 -5c138 0 138 12 138 62c8 0 11 0 19 2c1 -16 2 -26 2 -59c0 -8 0 -51 -2 -102
h-20c0 13 0 49 -8 54c-15 10 -77 21 -152 21c-29 0 -58 0 -87 -3c-1 -46 -2 -102 -2 -165c0 -106 0 -114 105 -127v-19c-21 1 -44 3 -106 3h-48c-9 0 -52 -1 -90 -4l1 16c46 8 54 21 58 43c11 58 11 153 11 267c0 48 0 224 -13 259c-9 25 -33 27 -68 31z" />
    <glyph glyph-name="G" unicode="G" horiz-adv-x="677" 
d="M664 310v-18c-20 -7 -28 -9 -33 -23c-4 -12 -5 -26 -5 -130c0 -85 6 -90 22 -103l-5 -11c-11 -1 -58 -11 -68 -13c-94 -17 -143 -19 -187 -19c-251 0 -351 174 -351 320c0 209 183 325 372 325c63 0 114 -16 119 -17c4 -2 23 -9 27 -9c5 0 24 22 30 22c7 0 7 -7 7 -19
c0 -35 13 -89 13 -124c0 -4 -1 -7 -6 -7c-6 0 -6 1 -10 11c-18 41 -75 116 -203 116c-171 0 -272 -145 -272 -286c0 -130 102 -306 290 -306c83 0 134 32 145 46c6 8 8 10 8 97c0 110 -3 122 -89 122c-13 0 -25 -1 -31 -2l2 21c104 1 160 1 225 7z" />
    <glyph glyph-name="H" unicode="H" horiz-adv-x="771" 
d="M22 -6l-7 18c9 1 52 6 63 21c13 18 18 206 18 275l1 161c0 127 -8 142 -70 144l1 16c11 2 24 5 49 5c8 0 29 -1 51 -2c22 -2 44 -3 52 -3l71 1c0 -7 0 -9 1 -17l-26 -4c-43 -6 -47 -6 -55 -89c-4 -35 -5 -69 -5 -104c0 -25 0 -50 1 -78h231c170 0 189 0 209 4l1 103
c0 117 -3 125 -9 138c-8 22 -19 24 -69 35l2 18c11 -1 26 -3 45 -5s41 -3 64 -3c8 0 30 1 51 2c22 1 43 2 49 2c0 -7 1 -8 2 -14c-2 -1 -6 -2 -9 -3c-52 -12 -52 -29 -55 -180l-4 -225c-4 -185 6 -195 69 -202l-1 -15c-13 3 -30 5 -47 6c-16 1 -31 1 -41 1
c-8 0 -34 -1 -59 -2c-26 -2 -51 -3 -61 -3l-2 17c65 7 68 24 71 114l3 111l-1 64l-54 2l-279 2l-106 -1c-1 -19 -3 -115 -3 -170c0 -35 1 -74 6 -88c5 -19 15 -26 72 -38l-1 -16c-35 2 -92 7 -128 7c-30 0 -43 -1 -91 -5z" />
    <glyph glyph-name="I" unicode="I" horiz-adv-x="313" 
d="M20 612v21c19 -1 44 -2 69 -4c25 -1 50 -2 67 -2c3 0 129 5 135 6v-23c-56 0 -72 -5 -82 -23c-16 -31 -16 -190 -16 -235c0 -181 0 -201 2 -258c2 -59 2 -75 92 -77l-2 -19c-18 0 -108 3 -129 3c-37 0 -131 -3 -141 -3l-1 18c75 4 89 18 97 42c15 43 15 198 15 255
c0 97 -2 129 -5 212c-3 66 -7 85 -101 87z" />
    <glyph glyph-name="J" unicode="J" horiz-adv-x="313" 
d="M17 612l-3 19c21 0 123 -6 146 -6c27 0 98 4 130 6l1 -19c-85 -6 -92 -15 -93 -127c-1 -22 -2 -123 -2 -143v-75c0 -39 2 -230 2 -273c0 -21 0 -36 -2 -65c-33 -46 -111 -156 -182 -156c-16 0 -32 13 -32 21c0 12 49 38 59 38c4 0 23 -9 28 -9c61 0 61 207 61 264v194
c0 268 -7 298 -31 316c-22 16 -68 16 -82 15z" />
    <glyph glyph-name="K" unicode="K" horiz-adv-x="625" 
d="M28 614l-1 17c20 -1 85 -4 116 -4c53 0 78 4 101 7v-16c-16 -2 -57 -7 -68 -27c-11 -21 -15 -183 -15 -221v-58c13 11 40 38 60 58l120 118c24 24 51 51 65 69c4 5 11 17 11 29c0 22 -30 24 -48 25l-1 18l81 -1c35 -1 70 1 104 5l1 -19c-62 -7 -194 -138 -223 -167
l-68 -66c-25 -24 -32 -31 -47 -47l181 -151c136 -112 181 -149 223 -173l1 -16c-8 1 -18 3 -30 4s-27 2 -46 2c-41 0 -85 -4 -107 -6l-1 14c6 2 8 2 21 5c6 1 20 4 20 11c0 13 -86 83 -109 101l-90 73c-19 15 -50 41 -104 80c-2 1 -11 8 -13 9c-1 -40 0 -220 8 -244
c10 -24 67 -36 75 -36v-15c-17 3 -40 4 -64 5c-25 1 -51 1 -77 1c-53 0 -62 -1 -81 -2v17c37 3 54 9 60 37c11 47 14 217 14 265c0 58 0 117 -3 175c0 108 -5 116 -66 124z" />
    <glyph glyph-name="L" unicode="L" horiz-adv-x="563" 
d="M47 611v17c92 -1 102 -2 112 -2c43 0 82 0 108 2l-1 -19c-31 -3 -63 -4 -74 -30c-7 -17 -8 -83 -10 -164c-2 -80 -4 -183 -4 -259c0 -77 3 -105 13 -115c8 -7 13 -12 110 -12c105 0 164 23 186 35c11 7 32 23 43 65l16 -2c-3 -21 -15 -79 -37 -133c-34 4 -51 5 -67 5
s-45 1 -58 1h-343l-1 15c69 14 71 22 72 184l1 215c1 182 1 195 -66 197z" />
    <glyph glyph-name="M" unicode="M" horiz-adv-x="875" 
d="M21 615l2 19c11 0 15 -1 49 -2c25 -2 50 -5 92 -5c11 0 25 1 42 1c37 -100 43 -111 245 -488c19 32 29 50 72 133c26 51 161 298 187 356c38 -1 62 -1 83 -1c20 0 37 0 59 1l-1 -18c-85 -10 -92 -16 -89 -165l3 -136c1 -32 1 -50 6 -161s13 -126 87 -127v-18l-84 1
l-65 -1c-61 0 -77 -3 -93 -5l-1 18c72 17 92 30 92 149c0 17 0 37 -1 60l-4 132c-2 59 -3 86 -11 156h-2c-30 -57 -145 -268 -190 -362c-24 -52 -47 -101 -61 -147l-15 -1c-10 31 -33 104 -78 190c-56 107 -111 215 -166 323h-2c-6 -59 -24 -241 -24 -428
c0 -47 7 -66 90 -75l-1 -16c-16 2 -62 4 -69 4l-59 -1c-14 0 -82 -3 -98 -3l1 14c93 17 95 46 103 177l15 255c1 21 2 31 2 47c0 103 -42 119 -116 124z" />
    <glyph glyph-name="N" unicode="N" horiz-adv-x="771" 
d="M16 613v20c58 -4 59 -5 85 -4l42 1c64 -81 180 -190 213 -222l288 -273c4 61 4 123 4 185v94c0 191 -15 192 -100 206l5 14c7 1 16 1 24 1c9 0 42 -1 66 -3s41 -1 47 -1l62 1l1 -17c-41 -6 -54 -17 -60 -44c-14 -64 -16 -295 -16 -379c0 -56 1 -151 5 -204l-20 1
c-33 71 -160 190 -203 230l-183 171c-17 13 -132 123 -136 125l-6 -299c-4 -181 5 -181 113 -202c0 -8 0 -10 -2 -18c-7 0 -27 1 -47 2s-40 2 -48 2s-31 -1 -54 -2s-46 -4 -55 -4c-10 0 -13 3 -13 12c0 10 4 10 13 11c49 5 56 18 58 161l3 233c2 124 3 192 -86 202z" />
    <glyph glyph-name="O" unicode="O" horiz-adv-x="740" 
d="M41 315c0 182 160 327 338 327c157 0 322 -127 322 -325c0 -177 -140 -329 -339 -329c-210 0 -321 185 -321 327zM114 352c0 -175 135 -329 290 -329c104 0 223 76 223 255c0 183 -126 330 -279 330c-121 0 -234 -93 -234 -256z" />
    <glyph glyph-name="P" unicode="P" horiz-adv-x="531" 
d="M27 -7v15c41 11 59 16 62 33c7 28 7 124 7 226c0 61 0 123 -3 184c-5 116 -6 128 -15 143c-10 15 -28 17 -60 21c-1 9 -1 12 0 20c26 -2 66 -3 92 -3c20 0 34 1 53 2l31 2c11 1 21 1 31 1c190 0 276 -121 276 -207c0 -101 -95 -203 -276 -203c-32 0 -45 2 -63 5
c0 -24 1 -130 2 -151c3 -55 10 -63 93 -68l-1 -22c-11 2 -30 4 -50 5c-19 1 -39 2 -52 2c-21 0 -66 -2 -84 -5c-18 -2 -20 -3 -25 -3c-11 0 -13 1 -18 3zM167 603c0 -33 -6 -197 -6 -234c0 -46 0 -47 1 -104c24 -6 50 -11 79 -11c70 0 180 35 180 171c0 91 -59 187 -187 187
c-29 0 -51 -5 -67 -9z" />
    <glyph glyph-name="Q" unicode="Q" horiz-adv-x="740" 
d="M795 -99l6 -12c-43 -21 -101 -24 -122 -24c-111 0 -215 51 -300 123c-57 1 -88 2 -144 26c-132 57 -194 195 -194 303c0 173 153 325 338 325c156 0 322 -126 322 -325c0 -91 -38 -177 -104 -240c-35 -34 -71 -51 -112 -68c129 -90 216 -113 269 -113c18 0 26 2 41 5z
M114 352c0 -176 135 -329 290 -329c103 0 223 76 223 255c0 184 -127 330 -279 330c-121 0 -234 -93 -234 -256z" />
    <glyph glyph-name="R" unicode="R" 
d="M316 218l-56 80c-38 0 -71 1 -107 6l-1 -117c0 -33 1 -122 12 -148c6 -17 19 -21 56 -30c9 -2 11 -4 11 -8s-1 -11 -7 -11c-1 0 -21 2 -41 5c-21 2 -43 4 -51 4c-21 0 -55 -1 -98 -7c-3 0 -6 -1 -8 -1c-6 0 -10 2 -10 9s2 8 20 13c39 11 50 21 51 177v216
c1 193 -3 194 -70 203c1 8 1 11 2 16c26 -1 48 -1 66 -1c25 0 150 12 178 12c142 0 217 -85 217 -167c0 -62 -41 -127 -136 -162l22 -33c92 -139 185 -279 284 -286c6 -1 9 -3 9 -10c0 -5 0 -9 -25 -9c-134 0 -233 127 -318 249zM156 332c12 -3 33 -8 79 -8
c33 0 171 0 171 133c0 57 -46 158 -159 158c-21 0 -73 -5 -80 -23c-11 -24 -11 -174 -11 -260z" />
    <glyph glyph-name="S" unicode="S" horiz-adv-x="469" 
d="M62 -2l-20 1c1 55 -14 120 -27 163c7 2 9 3 16 4c19 -60 26 -83 64 -104c28 -15 90 -43 163 -43c20 0 125 0 125 111c0 97 -71 124 -158 157c-100 37 -176 78 -176 176c0 92 68 172 209 172c18 0 51 0 101 -11c20 -4 22 -4 25 -4c13 0 23 6 29 10c1 1 3 2 4 2
c3 0 7 -1 10 -2c-3 -21 -8 -75 -8 -77c0 -9 7 -54 6 -64l-15 -1c-8 109 -116 127 -167 127c-128 0 -133 -103 -133 -122c0 -85 70 -111 150 -142c78 -30 188 -72 188 -193c0 -90 -71 -166 -217 -166c-12 0 -69 0 -143 20c-9 2 -13 3 -16 3c-13 0 -11 -11 -10 -17z" />
    <glyph glyph-name="T" unicode="T" 
d="M29 525l-17 4c19 49 24 64 41 116c11 -10 16 -16 39 -19s63 -4 142 -4h247c18 0 101 2 117 2c30 0 33 4 42 14c5 -7 7 -8 13 -12c-11 -29 -23 -78 -27 -100l-21 -3c3 19 3 25 4 44c-15 12 -41 26 -141 26c-88 0 -88 0 -89 -19l-3 -65c0 -8 0 -16 -3 -86
c-1 -37 -2 -199 -2 -232c0 -168 0 -168 78 -178c20 -2 22 -2 22 -6c0 -1 0 -10 -1 -12c-7 -1 -13 -1 -19 -1c-7 0 -29 2 -52 3c-22 2 -44 3 -53 3c-21 0 -47 0 -104 -9c-25 -4 -28 -5 -34 -5c-11 0 -13 5 -17 16c9 3 14 4 30 8c69 16 72 22 72 59c0 3 3 47 4 55
c0 11 3 108 3 206c0 179 0 227 -12 258c-21 2 -46 4 -92 4c-139 0 -147 -19 -167 -67z" />
    <glyph glyph-name="U" unicode="U" horiz-adv-x="719" 
d="M21 608l2 18c23 -1 47 -1 70 -1c82 0 83 0 163 4l5 -16c-64 -8 -76 -19 -84 -35c-15 -27 -15 -184 -15 -229c0 -92 1 -161 10 -204c25 -116 164 -122 195 -122c47 0 178 16 207 103c25 72 27 225 27 307c0 175 -19 175 -86 175l-2 17c15 2 39 3 49 3c36 0 105 0 141 -1
v-20c-64 -3 -64 -9 -65 -93c-4 -248 -13 -363 -44 -422c-50 -93 -200 -102 -253 -102c-121 0 -248 50 -248 204c0 34 2 181 2 213c0 74 -2 144 -13 180c-5 15 -6 15 -61 21z" />
    <glyph glyph-name="V" unicode="V" horiz-adv-x="719" 
d="M10 617l2 18l40 -1c54 -2 60 -3 80 -3c15 0 27 1 48 1l49 -1l1 -16c-57 -4 -63 -5 -63 -18c0 -29 82 -208 113 -276l68 -147l14 -28c3 -6 9 -20 20 -42c36 66 97 196 105 214l64 140c13 29 42 95 42 119c0 29 -29 35 -54 37l3 20c11 -1 64 -5 115 -5c25 0 39 1 59 1v-14
c-62 -21 -67 -30 -136 -169l-110 -219c-33 -65 -89 -186 -97 -240l-15 -2c-5 14 -8 25 -25 61l-33 73c-10 25 -25 59 -41 93l-82 173c-23 48 -89 187 -109 209c-18 20 -36 21 -58 22z" />
    <glyph glyph-name="W" unicode="W" horiz-adv-x="979" 
d="M15 608l-1 20l46 -2c33 -1 62 -2 83 -2c24 0 56 0 85 2h35l2 -19c-28 -2 -80 -12 -80 -39c0 -40 156 -448 163 -459l20 52c6 12 30 72 36 85l85 190c-42 97 -56 130 -65 142c-17 23 -38 26 -55 27l-2 20c17 -1 29 -2 68 -2c19 0 89 0 160 5l1 -17c-76 -9 -75 -27 -75 -42
c0 -40 131 -393 161 -462c77 189 148 399 148 441c0 61 -67 61 -94 62l-4 16h52c43 -1 82 -1 146 1l39 1l-1 -17c-59 -6 -83 -34 -126 -152l-97 -269c0 -1 -24 -64 -29 -77c-20 -51 -25 -70 -50 -143l-15 1c-19 56 -47 147 -67 203l-82 225c-5 -11 -29 -61 -34 -73l-52 -117
c-42 -95 -65 -172 -87 -239h-13l-57 165c-32 92 -117 351 -155 422c-27 50 -62 51 -89 51z" />
    <glyph glyph-name="X" unicode="X" horiz-adv-x="677" 
d="M18 618l1 17c41 -5 99 -6 124 -6c53 0 74 1 97 3l3 -19c-20 0 -51 -1 -51 -18c0 -20 53 -87 76 -118l88 -111c98 131 134 180 134 213c0 32 -32 36 -65 38l2 17c8 0 30 -1 53 -2s47 -2 55 -2h101v-16c-64 -7 -78 -26 -166 -137l-38 -50l-33 -45c-4 -5 -22 -31 -27 -36
l164 -218c78 -104 80 -105 133 -114l2 -18c-9 1 -25 2 -44 2c-19 1 -41 2 -66 2c-31 0 -65 -1 -120 -4l-3 18c32 6 61 12 61 29c0 16 -16 47 -30 66c-58 80 -69 95 -86 117l-53 67c-32 -36 -45 -54 -128 -167c-27 -38 -38 -56 -38 -73c0 -29 37 -36 68 -40v-17
c-16 1 -64 2 -78 2l-32 1c-16 0 -101 -3 -117 -3l1 15c78 12 118 60 215 186l58 74c5 5 30 39 34 45l-46 57c-184 237 -194 238 -249 245z" />
    <glyph glyph-name="Y" unicode="Y" 
d="M9 610l-3 17h48c10 0 61 -3 72 -3c28 0 59 2 92 3l23 -1l-2 -19c-37 -3 -59 -4 -59 -19c0 -24 164 -236 188 -264c9 12 13 17 44 63l37 56c21 31 68 105 68 132c0 34 -46 33 -66 32l2 19l41 -2c10 0 55 -2 64 -2c14 0 81 2 96 2l-1 -20c-60 -3 -79 -15 -169 -151l-54 -81
c-8 -13 -50 -80 -51 -80l2 -158c0 -106 1 -106 35 -115c18 -4 41 -10 52 -13l-1 -13c-7 0 -10 1 -37 3l-30 2c-10 1 -21 2 -32 2h-21c-8 0 -33 -2 -59 -4c-25 -3 -50 -5 -60 -5v16c23 1 53 4 68 20c13 12 16 15 16 200c0 26 0 49 -1 60l-40 59c-35 50 -77 106 -100 134
c-98 122 -102 127 -162 130z" />
    <glyph glyph-name="Z" unicode="Z" horiz-adv-x="615" 
d="M410 0h-252c-51 0 -103 -2 -154 -6c0 4 1 8 1 12c175 181 331 380 473 588c-50 3 -143 4 -187 4c-201 0 -232 -10 -270 -92l-14 7c11 36 19 71 21 79l10 47c2 7 3 12 8 12c4 0 5 -2 7 -5c6 -10 15 -16 35 -18c29 -4 57 -5 141 -5c153 0 219 1 364 5v-9
c-77 -102 -170 -216 -178 -225l-109 -138c-7 -8 -32 -41 -38 -49c-41 -47 -100 -128 -141 -175c22 -4 47 -9 129 -9c163 0 208 8 269 32c42 17 57 32 74 78l15 -9c-3 -6 -48 -119 -58 -141c-3 0 -6 0 -9 1c-1 9 -3 16 -137 16z" />
    <glyph glyph-name="bracketleft" unicode="[" horiz-adv-x="313" 
d="M74 -270v933h208v-28h-180v-875h180v-30h-208z" />
    <glyph glyph-name="backslash" unicode="\" horiz-adv-x="531" 
d="M75 742l427 -887h-45l-428 887h46z" />
    <glyph glyph-name="bracketright" unicode="]" horiz-adv-x="313" 
d="M238 663v-933h-208v28h180v875h-180v30h208z" />
    <glyph glyph-name="asciicircum" unicode="^" horiz-adv-x="500" 
d="M244 641h15l222 -373h-48l-182 305l-183 -305h-49z" />
    <glyph glyph-name="underscore" unicode="_" horiz-adv-x="500" 
d="M506 -75v-50h-512v50h512z" />
    <glyph glyph-name="quoteleft" unicode="&#x2018;" horiz-adv-x="198" 
d="M156 673l13 -15c-53 -32 -66 -55 -66 -79c0 -11 6 -36 33 -47c11 -12 12 -19 12 -22s0 -6 -6 -10c-2 -2 -12 -8 -13 -9s-18 -13 -27 -48c-4 1 -8 1 -12 1c-12 28 -30 38 -39 43c-3 2 -10 6 -10 12c0 2 8 23 9 28c9 70 46 119 106 146z" />
    <glyph glyph-name="a" unicode="a" horiz-adv-x="375" 
d="M120 288l-60 -27c-2 8 -4 16 -4 23c0 55 128 94 153 94c20 0 52 -24 64 -35c13 -13 30 -31 30 -102c0 -22 -1 -43 -2 -65l-2 -37c-2 -26 -2 -30 -2 -42c0 -7 0 -66 27 -66c20 0 42 10 51 14v-20l-72 -29c-17 -6 -19 -7 -24 -7c-16 0 -33 26 -40 50
c-22 -12 -88 -50 -139 -50c-60 0 -60 53 -60 69c0 48 11 63 34 75c58 29 135 39 164 43l2 60v16c0 57 -40 90 -79 90c-16 0 -46 -10 -46 -33c0 -6 2 -13 5 -21zM236 57c-2 23 2 75 3 92c-89 6 -143 -28 -143 -66c0 -25 14 -61 45 -61c24 0 62 19 95 35z" />
    <glyph glyph-name="b" unicode="b" horiz-adv-x="469" 
d="M134 472l-3 -139c55 28 93 43 136 43c85 0 166 -69 166 -171c0 -139 -142 -207 -229 -207c-19 0 -34 3 -67 13c-18 5 -25 7 -34 7c-14 0 -21 -4 -33 -13c-6 -4 -7 -4 -8 -4s-6 2 -6 4c0 3 6 23 7 27c11 63 12 208 12 327c0 77 0 85 -2 158c-1 67 -7 83 -47 83
c-12 0 -15 0 -15 6c0 2 94 47 110 58c8 7 12 9 15 9c8 0 8 -7 8 -10c0 -2 -4 -52 -5 -58c-3 -63 -4 -69 -5 -133zM130 188v-72c1 -33 1 -40 12 -49c30 -22 66 -37 103 -37c73 0 126 58 126 140c0 70 -44 174 -138 174c-43 0 -78 -20 -100 -33c0 -3 -5 -82 -3 -123z" />
    <glyph glyph-name="c" unicode="c" horiz-adv-x="375" 
d="M350 61l7 -14c-36 -30 -85 -54 -134 -54c-51 0 -116 23 -148 59c-21 24 -32 74 -32 113c0 131 122 217 202 217c27 0 114 -22 114 -40c0 -5 -23 -46 -36 -46c-6 0 -30 15 -35 17c-14 6 -56 22 -88 22c-83 0 -99 -70 -99 -129c0 -130 101 -177 155 -177c40 0 75 21 94 32z
" />
    <glyph glyph-name="d" unicode="d" horiz-adv-x="479" 
d="M348 465v68c-6 59 -7 66 -32 66c-10 0 -21 -2 -33 -5l-1 15c12 5 88 36 129 65l12 -5c-8 -34 -16 -182 -17 -221l-2 -48l-4 -197v-47c0 -41 0 -140 18 -140c8 0 47 12 59 16v-18c-32 -11 -119 -40 -124 -40c-15 0 -15 63 -15 79c-64 -33 -100 -51 -150 -51
c-68 0 -150 55 -150 157c0 187 201 216 213 216c14 0 53 -6 94 -16c2 36 3 70 3 106zM338 126l3 167c0 32 -117 46 -127 46c-63 0 -121 -53 -121 -124c0 -111 66 -173 146 -173c42 0 75 20 99 35c-1 7 0 41 0 49z" />
    <glyph glyph-name="e" unicode="e" horiz-adv-x="365" 
d="M345 254l-244 -53c3 -57 7 -85 35 -122c38 -49 77 -49 91 -49c26 0 59 7 102 38l9 -12c-28 -20 -85 -61 -151 -61c-100 0 -148 91 -148 174c0 156 127 204 153 204c36 0 97 -13 130 -89c3 -7 6 -12 22 -12zM102 220l64 14c4 2 52 13 64 15c35 8 39 9 39 16
c0 11 -31 77 -96 77c-56 0 -68 -84 -71 -122z" />
    <glyph glyph-name="f" unicode="f" horiz-adv-x="302" 
d="M34 338v29l65 1c1 118 22 177 56 216c47 54 128 89 170 89c32 0 84 -15 84 -34c0 -10 -17 -39 -31 -39c-3 0 -38 14 -39 14c-28 10 -43 15 -65 15c-75 0 -107 -53 -112 -261h133v-31l-133 -1l-2 -139c0 -88 0 -161 10 -170c7 -5 10 -5 74 -7v-19c-64 2 -186 2 -213 2v16
c64 4 66 17 67 130l1 163c0 14 -1 18 -4 20c-6 4 -48 6 -61 6z" />
    <glyph glyph-name="g" unicode="g" horiz-adv-x="417" 
d="M167 62v2c-36 9 -131 34 -131 147c0 99 89 170 173 170c48 0 78 -20 90 -29c20 4 48 7 74 7c19 0 26 0 35 -2c-1 -18 -5 -35 -13 -53c-19 8 -38 14 -70 14c13 -18 27 -55 27 -89c0 -98 -74 -133 -145 -167c-36 -16 -86 -39 -86 -55c0 -28 47 -30 72 -30
c125 0 205 0 205 -95c0 -99 -133 -160 -246 -160s-132 69 -132 101c0 62 57 95 89 114c-16 9 -52 30 -51 75c22 17 43 25 77 38zM219 90c31 16 75 37 75 114c0 73 -44 148 -115 148c-52 0 -94 -44 -94 -108c0 -102 95 -139 134 -154zM136 -74c-35 -11 -79 -40 -79 -81
c0 -40 50 -84 135 -84c60 0 169 26 169 96c0 24 -16 59 -62 63c-14 2 -85 0 -101 0c-20 0 -43 0 -62 6z" />
    <glyph glyph-name="h" unicode="h" horiz-adv-x="469" 
d="M18 594v19c1 0 14 7 14 7l95 46l16 9l16 -8c-12 -57 -16 -122 -19 -247l-3 -99c55 23 112 48 163 48c100 0 100 -107 100 -207c0 -18 -3 -107 -3 -112c0 -25 0 -35 67 -35l-1 -15c-3 -1 -27 0 -32 0c-16 0 -95 -2 -113 -1c-3 0 -19 -5 -23 -5s-5 3 -5 7c0 5 4 6 8 7
c37 9 43 27 43 142c0 112 -7 180 -87 180c-43 0 -98 -22 -115 -30c0 -10 0 -14 -2 -46l-4 -118c0 -10 -1 -25 -1 -41c0 -24 1 -49 6 -61c3 -10 4 -13 61 -18v-17c-16 2 -23 2 -68 2c-52 0 -79 -2 -117 -5l1 16c56 12 57 12 60 100c2 89 3 107 4 131l2 137c1 21 1 57 1 93
c0 67 0 129 -33 129c-8 0 -24 -6 -31 -8z" />
    <glyph glyph-name="i" unicode="i" horiz-adv-x="240" 
d="M32 -2l2 15c20 2 42 5 47 15c6 12 9 130 9 155c0 93 -3 107 -11 116c-5 5 -47 3 -47 11c0 7 5 9 9 10c39 12 81 37 114 64c3 0 6 -1 9 -2c-10 -44 -16 -164 -16 -215c0 -22 1 -108 8 -132c4 -12 10 -13 33 -15c25 -1 27 -2 34 -3l6 -14zM106 582c0 22 18 38 38 38
s37 -17 37 -38c0 -20 -16 -38 -37 -38s-38 17 -38 38z" />
    <glyph glyph-name="j" unicode="j" horiz-adv-x="229" 
d="M26 306l-7 15c31 12 84 34 138 80c2 -2 5 -5 8 -7c-12 -38 -12 -91 -12 -116v-153l2 -168c1 -87 1 -108 -88 -180c-30 -24 -31 -33 -35 -57c0 0 -1 0 -2 -1l-15 14c1 35 20 59 37 82c44 58 44 90 44 222c0 53 0 189 -9 234c-5 22 -12 40 -35 40c-9 0 -18 -3 -26 -5z
M94 576c0 26 20 43 42 43s38 -16 38 -36c0 -21 -21 -41 -44 -41c-20 0 -36 14 -36 34z" />
    <glyph glyph-name="k" unicode="k" horiz-adv-x="458" 
d="M13 -1v16c45 4 54 16 58 46c6 67 8 355 8 373c0 17 0 109 -9 143c-1 3 -6 21 -23 21c-13 0 -32 -9 -32 -9l1 16c10 5 39 21 59 29c34 14 55 23 66 38h15c-17 -52 -21 -313 -21 -385l-1 -67c20 8 129 78 129 112c0 18 -18 21 -36 23v14l45 -1c14 -1 39 -1 65 -1
c34 0 70 0 81 1l-2 -18c-42 -4 -70 -17 -135 -60l-84 -56c10 -11 22 -23 127 -124c86 -86 108 -90 130 -94v-17c-10 1 -19 3 -53 3h-38c-39 0 -64 -1 -86 -3v17c6 2 40 4 40 11c0 8 -37 48 -41 52c-49 50 -55 55 -73 72l-32 29c-2 2 -24 22 -29 22c-8 0 -8 -11 -8 -17v-52
c0 -78 0 -102 12 -107c7 -3 32 -8 47 -10l-1 -17c-19 3 -38 4 -62 4c-19 0 -101 -3 -117 -4z" />
    <glyph glyph-name="l" unicode="l" horiz-adv-x="240" 
d="M13 -2v15c50 9 66 27 71 70c5 32 13 220 13 352c0 51 0 129 -13 147c-6 9 -17 12 -33 12c-10 0 -15 -1 -22 -2v15c50 21 96 41 131 66h15c-14 -52 -18 -152 -19 -209l-4 -235c0 -47 0 -165 7 -187c7 -21 64 -27 74 -28v-18c-14 1 -92 7 -129 7c-13 0 -63 -2 -91 -5z" />
    <glyph glyph-name="m" unicode="m" horiz-adv-x="708" 
d="M14 -1l1 15c52 12 68 19 68 162c0 133 -19 134 -69 136v16c38 9 72 24 107 45c6 4 8 4 10 4c16 0 13 -59 12 -70c25 14 107 63 157 63c27 0 70 -13 84 -62c60 32 111 48 156 48c99 0 99 -73 99 -170v-87c-3 -71 -2 -72 19 -75c8 -1 45 -10 54 -11l-7 -13h-185l-3 13
c52 13 62 15 62 163c0 85 -16 141 -89 141c-34 0 -71 -13 -102 -27c5 -34 5 -204 7 -242c1 -25 7 -26 58 -33v-15h-61c-18 0 -105 -4 -125 -4l-3 15c61 12 71 24 69 145l-1 47c-1 77 -21 123 -75 123c-42 0 -96 -31 -113 -40c-1 -20 -2 -91 -2 -98v-50c1 -74 1 -86 3 -95
s7 -20 67 -29v-17c-12 0 -72 4 -85 4z" />
    <glyph glyph-name="n" unicode="n" horiz-adv-x="469" 
d="M18 7l-1 14c55 10 57 21 60 41c6 38 7 118 7 145c0 105 -5 105 -64 111c0 3 0 6 -1 9c34 9 92 37 93 38s18 10 22 10c11 0 11 -26 11 -61c64 36 111 56 155 56c101 0 101 -77 101 -149v-116c0 -28 0 -69 6 -75s44 -12 50 -15l1 -15c-12 2 -33 6 -85 6
c-41 0 -79 -4 -98 -6v14c35 7 48 16 55 28c11 23 13 137 13 149c0 63 0 137 -76 137c-4 0 -54 0 -122 -35l-3 -130c-1 -76 -1 -84 2 -110c2 -19 3 -29 64 -36l-1 -15c-18 2 -54 4 -82 5h-107z" />
    <glyph glyph-name="o" unicode="o" horiz-adv-x="469" 
d="M38 183c0 116 93 191 204 191c102 0 189 -80 189 -185c0 -100 -75 -194 -194 -194c-78 0 -199 48 -199 188zM102 210c0 -90 58 -193 140 -193c67 0 123 59 123 151c0 89 -62 182 -147 182c-67 0 -116 -59 -116 -140z" />
    <glyph glyph-name="p" unicode="p" horiz-adv-x="479" 
d="M15 305l-4 14c14 8 19 12 33 18c7 0 71 32 92 58c5 -15 5 -21 11 -69l42 17c27 11 72 27 99 27c73 0 155 -77 155 -175c0 -170 -188 -197 -224 -197c-12 0 -39 3 -72 14c0 -17 -2 -94 -2 -109v-89c0 -60 5 -65 34 -66l36 -2c6 0 12 -3 12 -9c0 -9 -4 -9 -21 -9
c-78 0 -87 -1 -175 -7c0 7 0 9 -1 15c35 3 40 10 46 24c12 31 13 175 13 221l1 61c0 33 -1 215 -5 237c-4 18 -19 39 -34 39c-7 0 -15 -4 -36 -13zM146 306l-1 -247l45 -15c35 -12 55 -17 71 -17c38 0 127 27 127 126c0 106 -85 182 -145 182c-14 0 -32 -6 -97 -29z" />
    <glyph glyph-name="q" unicode="q" horiz-adv-x="469" 
d="M263 -278l-2 17c74 7 74 24 74 170v111l-55 -17c-21 -7 -45 -14 -74 -14c-91 0 -169 76 -169 172c0 124 120 210 235 210c24 0 48 -4 70 -14c5 -3 23 -11 28 -11c9 0 38 32 45 32c2 0 7 -1 7 -5c0 -2 0 -4 -5 -15c-15 -39 -17 -80 -20 -285v-165c1 -116 2 -152 9 -157
c2 -2 54 -8 60 -9v-16c-16 1 -32 1 -48 1c-12 0 -49 -1 -83 -2c-35 -2 -68 -3 -72 -3zM339 94l2 87c0 17 0 110 -4 116c-10 18 -62 46 -106 46c-70 0 -129 -63 -129 -163s70 -160 144 -160c45 0 70 16 91 29c1 11 2 26 2 45z" />
    <glyph glyph-name="r" unicode="r" horiz-adv-x="313" 
d="M24 -1l1 14c50 9 61 11 61 198c0 72 -3 98 -38 98c-7 0 -23 -2 -31 -4l2 16l126 73c2 -30 2 -35 2 -83l52 30c1 1 4 2 7 4c10 6 36 21 62 38c1 -1 3 -2 4 -2c2 -2 5 -4 7 -5c14 -7 31 -15 31 -41c0 -28 -27 -43 -53 -46c0 23 -12 34 -30 34c-23 0 -52 -19 -65 -30
c-16 -14 -16 -14 -17 -53c-1 -6 -3 -78 -3 -87c0 -25 2 -100 10 -118c5 -11 13 -11 28 -11l13 1l58 1l-1 -20c-8 0 -52 -2 -69 -2z" />
    <glyph glyph-name="s" unicode="s" horiz-adv-x="323" 
d="M27 110l17 -1c0 -15 46 -85 117 -85c14 0 69 1 69 52c0 53 -57 80 -78 91l-37 17c-30 15 -70 38 -70 82s48 104 132 104c17 0 38 -2 78 -7l16 -83h-17c-9 34 -63 69 -94 69c-35 0 -58 -23 -58 -57c0 -28 16 -41 56 -60l30 -14c33 -16 98 -47 98 -116
c0 -19 -7 -51 -28 -64c-59 -37 -91 -41 -121 -41c-39 0 -72 11 -102 20c2 10 4 18 4 28c0 14 -7 49 -12 65z" />
    <glyph glyph-name="t" unicode="t" horiz-adv-x="292" 
d="M71 140l2 190c-15 2 -23 3 -52 3c1 4 1 8 1 12c60 37 83 63 123 116l-5 -88c21 -2 46 -4 92 -4c17 0 24 0 52 1l-1 -30c-17 -2 -35 -3 -52 -3c-11 0 -61 3 -71 3c-24 0 -23 -6 -24 -56l-2 -152c-1 -40 -1 -101 63 -101c27 0 65 15 94 28c1 -4 1 -7 2 -10
c-22 -24 -95 -55 -145 -55c-34 0 -77 18 -77 97v49z" />
    <glyph glyph-name="u" unicode="u" horiz-adv-x="458" 
d="M10 296v20l108 60c8 4 8 4 10 4c4 0 7 -3 7 -9l-6 -84c-2 -33 -6 -92 -6 -123c0 -47 0 -128 83 -128c37 0 75 21 116 41c0 6 0 37 1 48l3 100c3 88 -8 93 -61 95l-1 18l130 30c-3 -54 -12 -189 -12 -236c0 -55 3 -80 9 -100c21 1 36 5 55 12v-22c-32 -9 -84 -26 -112 -36
c-9 28 -11 47 -13 69c-50 -25 -123 -61 -166 -61c-21 0 -96 12 -91 145l4 110c1 29 2 60 -21 60c-9 0 -17 -4 -37 -13z" />
    <glyph glyph-name="v" unicode="v" horiz-adv-x="396" 
d="M201 -23h-15c-26 112 -119 339 -131 349c-7 6 -29 17 -35 20v12c16 -1 34 -1 52 -1c43 0 89 2 125 4l-2 -17c-52 -6 -53 -10 -53 -20c0 -36 56 -195 76 -238c45 73 89 186 89 221c0 33 -26 36 -52 37l2 16l34 1c9 -1 39 -3 46 -3c18 0 39 2 56 6v-15
c-35 -15 -56 -63 -61 -76c-3 -5 -15 -35 -18 -40l-88 -194z" />
    <glyph glyph-name="w" unicode="w" horiz-adv-x="615" 
d="M184 -18l-16 -1c-9 69 -40 165 -66 246c-33 98 -42 102 -79 117v12c13 2 22 2 37 2c75 0 84 0 129 5l-3 -19c-33 -4 -43 -9 -43 -24c0 -40 42 -162 60 -211c0 -2 4 -12 4 -14h2c0 3 4 11 5 14c13 23 68 129 84 181c-18 45 -29 47 -61 52l2 16l48 -1c20 0 50 2 92 4l31 1
l-1 -16c-31 -2 -49 -8 -49 -26c0 -20 65 -230 65 -231h2c27 53 96 182 96 226c0 31 -21 32 -40 33l1 14c14 -1 31 -2 61 -2c27 0 48 1 67 2c0 -4 0 -9 -1 -13c-21 -5 -30 -12 -94 -136l-63 -125c-13 -19 -41 -88 -46 -107h-15c-3 18 -9 37 -14 56l-40 135
c-3 8 -18 55 -26 78l-98 -203c-10 -22 -27 -61 -31 -65z" />
    <glyph glyph-name="x" unicode="x" horiz-adv-x="406" 
d="M16 0l1 18c25 4 32 7 53 33c15 17 16 19 43 49l68 77c-26 54 -68 131 -94 152c-11 9 -29 11 -61 15l2 18l41 -1c5 0 22 -1 44 -1c24 0 55 1 83 5l4 -19c-13 -1 -30 -2 -30 -17c0 -12 36 -78 52 -106c8 8 71 73 71 100c0 14 -13 20 -48 24l6 16c12 -1 26 -2 40 -3
c13 -1 27 -1 39 -1c27 0 42 2 58 4v-16c-36 -2 -85 -64 -149 -144c0 0 -4 -4 -4 -5l53 -99c44 -80 62 -81 100 -84v-17c-15 2 -21 3 -88 3c-24 0 -67 -1 -79 -3l-3 19c35 2 39 2 39 10c0 3 -37 77 -39 81l-24 46c-58 -58 -86 -105 -86 -117c0 -11 10 -15 45 -19l2 -18
c-29 3 -64 3 -72 3c-5 0 -36 0 -67 -3z" />
    <glyph glyph-name="y" unicode="y" horiz-adv-x="406" 
d="M11 341v15c24 -3 56 -3 67 -3c34 0 67 2 100 6l-1 -18c-20 -4 -38 -7 -38 -29c0 -27 28 -143 71 -257l32 58c22 38 79 153 79 189c0 25 -25 37 -68 42l7 16c48 -5 85 -6 101 -6c26 0 37 1 48 3l-1 -16c-28 -5 -42 -26 -63 -69l-53 -110c-1 -3 -31 -60 -37 -72
c-106 -207 -118 -260 -144 -370h-104v17c64 15 83 47 126 145l38 85c-29 106 -62 232 -96 314c-21 54 -40 56 -64 60z" />
    <glyph glyph-name="z" unicode="z" horiz-adv-x="406" 
d="M20 -6l-7 14c110 106 211 242 275 329h-115c-69 1 -125 -11 -140 -56h-19c19 39 30 66 29 96c26 -15 37 -17 140 -17l115 -1c23 0 60 1 95 1c-8 -12 -15 -23 -34 -45l-77 -92l-60 -70c-7 -7 -94 -113 -101 -127c31 -3 63 -4 94 -4c78 0 143 6 165 88h15
c-4 -34 -21 -91 -30 -117c-2 0 -9 1 -10 2c-22 4 -35 5 -67 5l-178 -1c-25 0 -66 -1 -90 -5z" />
    <glyph glyph-name="braceleft" unicode="{" horiz-adv-x="510" 
d="M119 168v18c64 8 112 51 112 102c0 11 -5 44 -10 76c-5 33 -10 67 -10 79c0 94 75 174 180 188v-17c-77 -17 -112 -65 -112 -112c0 -23 21 -132 21 -157c0 -73 -52 -137 -141 -167v-2c89 -30 141 -94 141 -167c0 -11 -5 -44 -10 -78c-6 -33 -11 -66 -11 -79
c0 -47 35 -95 112 -112v-17c-105 14 -180 94 -180 188c0 22 20 130 20 155c0 51 -48 94 -112 102z" />
    <glyph glyph-name="bar" unicode="|" horiz-adv-x="531" 
d="M242 -144v886h47v-886h-47z" />
    <glyph glyph-name="braceright" unicode="}" horiz-adv-x="510" 
d="M391 186v-18c-64 -8 -112 -51 -112 -102c0 -11 5 -44 10 -76c5 -33 10 -67 10 -79c0 -94 -75 -174 -180 -188v17c77 17 112 65 112 112c0 23 -21 132 -21 157c0 73 52 137 141 167v2c-89 30 -141 94 -141 167c0 11 5 44 10 78c5 33 11 66 11 79c0 47 -35 95 -112 112v17
c105 -14 180 -94 180 -188c0 -22 -20 -130 -20 -155c0 -51 48 -94 112 -102z" />
    <glyph glyph-name="asciitilde" unicode="~" 
d="M78 272h-22c7 142 112 143 121 143c20 0 47 0 198 -65c77 -33 97 -34 116 -34c36 0 88 17 97 97h23c-2 -89 -59 -142 -127 -142c-37 0 -42 2 -194 63c-68 28 -93 33 -115 33c-77 0 -92 -71 -97 -95z" />
    <glyph glyph-name="exclamdown" unicode="&#xa1;" horiz-adv-x="208" 
d="M96 212l20 -3c-3 -77 -4 -163 -4 -244c0 -10 0 -59 2 -79c1 -9 5 -21 13 -25c4 -3 11 -8 11 -12s-4 -7 -10 -8c-14 -5 -87 -34 -89 -34c-5 0 -6 3 -6 7c0 2 0 5 1 9l46 279c5 29 9 60 14 99c1 1 2 9 2 11zM170 331c0 -7 -7 -11 -13 -15c-20 -11 -29 -26 -37 -40
c-2 -3 -5 -8 -13 -8c-12 0 -17 18 -17 19c-1 0 -11 21 -32 32c-12 6 -12 7 -12 14c0 6 1 8 8 12c13 6 22 11 39 38c4 7 7 11 14 11s10 -3 15 -10c12 -21 17 -28 37 -39c7 -4 11 -6 11 -14z" />
    <glyph glyph-name="cent" unicode="&#xa2;" horiz-adv-x="375" 
d="M260 532l30 100l22 -7l-29 -98c17 -4 76 -18 76 -34c0 -5 -23 -46 -36 -46c-2 0 -48 22 -57 26l-82 -272c36 -20 62 -21 73 -21c40 0 74 21 93 32l7 -14c-37 -30 -84 -54 -134 -54c-24 0 -42 5 -54 8l-41 -139l-21 6l41 139c-51 19 -105 47 -105 158
c0 136 133 227 217 216zM165 214l80 265c-13 3 -27 7 -45 7c-84 0 -99 -72 -99 -129c0 -78 37 -122 64 -143z" />
    <glyph glyph-name="sterling" unicode="&#xa3;" horiz-adv-x="490" 
d="M28 310l13 26c13 -5 15 -6 29 -6c34 0 59 2 75 3c1 162 26 194 57 225c65 68 140 78 163 78c18 0 41 -5 72 -23c6 -4 9 -5 11 -5c3 0 9 3 17 9l12 -12c-6 -10 -51 -47 -59 -58c-30 29 -73 54 -112 54c-19 0 -54 -21 -70 -47c-21 -33 -25 -128 -25 -172l1 -46l81 2
c28 1 88 3 132 12c3 -11 -2 -21 -10 -29c-9 -1 -195 -7 -206 -7c3 -143 -12 -167 -93 -256c96 -1 100 -1 157 -8c22 -2 38 -4 63 -4c50 0 57 8 73 28l28 35l18 -9c-4 -13 -49 -66 -49 -73c-6 -10 -24 -37 -61 -37c-11 0 -31 3 -42 5l-39 7c-23 4 -60 7 -82 7
c-35 0 -108 -5 -137 -24c0 0 -3 -2 -4 -2l-15 12c34 31 66 69 88 96c23 27 33 70 33 161l-1 59c-12 1 -72 -3 -85 -3c-7 0 -15 1 -33 2z" />
    <glyph glyph-name="fraction" unicode="&#x2044;" horiz-adv-x="73" 
d="M-169 -44l-13 6c39 60 233 391 389 703c17 1 31 4 46 9c-14 -26 -81 -138 -94 -161c-9 -17 -56 -98 -66 -117l-106 -199c-44 -83 -50 -94 -72 -138c-21 -44 -28 -59 -41 -83c-19 -4 -27 -8 -43 -20z" />
    <glyph glyph-name="yen" unicode="&#xa5;" 
d="M25 610l-3 17h48c11 0 62 -3 74 -3c27 0 58 2 90 3l23 -1l-2 -19c-37 -3 -59 -4 -59 -19c0 -24 145 -235 163 -265c22 34 3 2 34 57l37 65c19 34 68 105 68 132c0 34 -46 33 -66 32l2 19l41 -2c10 0 55 -2 64 -2c14 0 81 2 96 2l-1 -20c-60 -3 -90 -9 -169 -151l-44 -79
l-18 -34c-10 -18 -28 -55 -27 -53h-2v-2h214v-29h-214l1 -81h213v-29h-213v-14c0 -106 1 -106 35 -115c18 -5 41 -10 52 -13l-1 -13c-7 0 -10 1 -37 3l-30 2c-10 1 -21 2 -32 2s-43 -2 -74 -4s-60 -5 -66 -5v16c83 4 83 27 84 141h-207v29h207v81h-207v29h206l-35 58
c-31 51 -60 107 -83 135c-99 121 -102 127 -162 130z" />
    <glyph glyph-name="florin" unicode="&#x192;" horiz-adv-x="552" 
d="M420 391l-7 -29h-110l-26 -180c-25 -176 -56 -265 -135 -339c-44 -41 -98 -68 -159 -68c-17 0 -46 1 -46 24c0 27 33 27 41 27s42 -2 48 -2c143 0 168 139 193 309l34 230l-73 1c1 11 2 14 5 24l73 2c7 45 19 123 87 186c41 38 86 49 112 49c22 0 36 -10 36 -25
c0 -28 -36 -30 -55 -29l-22 1c-77 3 -90 -46 -109 -181h113z" />
    <glyph glyph-name="section" unicode="&#xa7;" horiz-adv-x="438" 
d="M228 6l-44 51c-104 117 -134 165 -134 230c0 39 11 83 76 146c-15 21 -24 46 -24 71c0 81 67 168 159 168c1 0 75 -2 75 -33c0 -17 -10 -41 -30 -41c-13 0 -74 25 -88 25c-47 0 -76 -36 -76 -69c0 -42 44 -93 110 -171c95 -110 136 -170 136 -240
c0 -77 -44 -118 -72 -146c21 -30 34 -61 34 -98c0 -93 -109 -178 -179 -178c-52 0 -105 29 -105 46c0 12 19 44 42 44c8 0 20 -6 27 -11c31 -21 51 -34 77 -34c54 0 86 47 86 99c0 30 -7 70 -70 141zM193 148l36 -42c7 -9 64 -76 74 -91c17 17 37 35 37 83
c0 77 -44 130 -148 255c-8 9 -46 52 -53 63c-18 -18 -48 -47 -48 -94c0 -54 39 -100 102 -174z" />
    <glyph glyph-name="currency" unicode="&#xa4;" horiz-adv-x="717" 
d="M147 586l65 -64c30 21 72 52 147 52c74 0 117 -31 147 -53l65 65l32 -33l-65 -64c21 -28 52 -72 52 -149c0 -73 -27 -111 -52 -145l65 -65l-32 -32l-65 65c-29 -21 -72 -53 -147 -53c-76 0 -119 32 -147 53l-65 -65l-33 32l66 65c-21 28 -53 71 -53 147
c0 75 32 118 53 147l-66 64zM544 342c0 102 -83 185 -185 185s-185 -83 -185 -185s83 -185 185 -185s185 83 185 185z" />
    <glyph glyph-name="quotesingle" unicode="'" horiz-adv-x="188" 
d="M103 340h-21l-26 144c-5 27 -11 54 -11 81c0 39 16 60 47 60c29 0 51 -22 51 -52c0 -16 -6 -52 -10 -73z" />
    <glyph glyph-name="quotedblleft" unicode="&#x201c;" horiz-adv-x="417" 
d="M175 673l11 -15c-31 -19 -65 -43 -65 -78c0 -10 5 -38 32 -46c10 -14 12 -19 12 -23c0 -7 -4 -9 -9 -12c-20 -11 -33 -34 -37 -54h-12c-12 22 -18 31 -38 43c0 1 -4 3 -5 4c-3 1 -6 3 -6 9c0 2 1 3 3 7c6 10 6 10 8 23c9 73 46 116 106 142zM360 673l11 -15
c-32 -20 -65 -44 -65 -78c0 -10 5 -38 32 -46c12 -17 12 -20 12 -23c0 -7 -4 -9 -9 -12c-21 -11 -33 -36 -37 -54h-12c-12 23 -19 32 -38 43c0 1 -4 3 -5 4c-3 2 -6 4 -6 8c0 3 1 4 3 8c6 10 6 10 8 23c11 86 61 122 106 142z" />
    <glyph glyph-name="guillemotleft" unicode="&#xab;" horiz-adv-x="458" 
d="M329 186l99 -188h-16l-177 190l176 189h17zM328 187l98 -189h-16l-175 190l176 189h15zM125 186l99 -188h-16l-177 190l176 189h17z" />
    <glyph glyph-name="guilsinglleft" unicode="&#x2039;" horiz-adv-x="250" 
d="M125 186l99 -188h-16l-176 189l175 190h17z" />
    <glyph glyph-name="guilsinglright" unicode="&#x203a;" horiz-adv-x="250" 
d="M218 188l-177 -190h-16l99 188l-99 191h17z" />
    <glyph glyph-name="fi" unicode="&#xfb01;" horiz-adv-x="479" 
d="M30 3l-1 16c62 14 64 19 64 84l1 228h-65v28c11 0 57 2 66 2v39c1 121 20 159 73 204c22 19 93 70 157 70c62 0 109 -41 109 -52c0 -13 -44 -29 -50 -29c-4 0 -7 2 -14 9c-19 19 -37 32 -77 32c-133 0 -135 -120 -135 -213l1 -59c33 -4 42 -4 63 -4c65 0 83 0 129 14
l64 20c3 0 4 -2 4 -5c0 -2 -3 -13 -3 -14c-16 -56 -19 -83 -18 -170l2 -126c0 -55 2 -60 65 -66l-1 -19c-31 8 -65 12 -96 12c-14 0 -73 -4 -85 -4v18c13 0 38 2 44 12c16 23 16 103 16 158c0 144 -5 144 -107 144c-4 1 -66 0 -78 0c-3 -38 -4 -100 -4 -148
c0 -81 0 -129 5 -149c2 -9 8 -10 31 -12l37 -3l1 -21c-46 6 -106 5 -198 4z" />
    <glyph glyph-name="fl" unicode="&#xfb02;" horiz-adv-x="490" 
d="M41 -4l3 13c48 6 51 26 51 56c0 70 1 144 2 216v46h-59l1 23c24 2 32 2 59 1c3 115 14 175 73 241c57 64 119 71 145 71c36 0 51 -12 62 -21c2 2 47 32 61 32c-24 -58 -31 -86 -31 -290l1 -206c0 -41 0 -57 1 -85c3 -57 3 -62 22 -65c11 -2 37 -4 49 -5l-3 -18
c-32 3 -65 3 -72 3c-17 0 -102 -5 -105 -5c-4 0 -9 1 -9 9c0 2 0 4 1 7c29 1 40 7 45 17c12 25 13 122 13 158l2 133h-194c-1 -23 -3 -89 -3 -109l1 -141c1 -42 5 -56 64 -56c27 0 30 0 30 -9c0 -4 -1 -5 -3 -7l-112 -2c-14 0 -80 -7 -95 -7zM160 351l159 -1c23 2 26 2 32 4
c1 14 2 38 2 67c0 58 -3 135 -8 182c-8 5 -10 7 -18 14c-19 11 -42 11 -49 11c-110 0 -114 -125 -118 -277z" />
    <glyph glyph-name="endash" unicode="&#x2013;" horiz-adv-x="500" 
d="M-6 161v53h512v-53h-512z" />
    <glyph glyph-name="dagger" unicode="&#x2020;" horiz-adv-x="354" 
d="M98 655h158v-13c-58 -25 -60 -52 -60 -59c0 -11 11 -63 11 -75c0 -14 -2 -28 -10 -55l-11 -37c28 4 90 14 131 55h15v-130h-14c-35 37 -107 54 -132 56c5 -51 24 -86 43 -101c-40 -140 -41 -349 -41 -424h-22c0 77 -1 284 -41 424c18 15 37 47 43 101
c-25 -2 -97 -19 -132 -56h-14v130h15c41 -41 103 -51 131 -55c-3 12 -4 15 -11 37c-8 27 -10 40 -10 55c0 11 11 63 11 75c0 6 0 34 -60 59v13z" />
    <glyph glyph-name="daggerdbl" unicode="&#x2021;" horiz-adv-x="354" 
d="M121 666h112v-13c-17 -14 -40 -43 -40 -63c0 -8 8 -47 8 -56c0 -25 -12 -70 -14 -80c36 3 67 6 115 48h10l-1 -110h-9c-44 42 -86 43 -115 43c3 -36 8 -45 28 -73c-14 -49 -25 -99 -25 -169c0 -69 14 -129 25 -161c-20 -28 -25 -38 -28 -74c30 1 72 2 115 44h9l1 -110
h-10c-48 41 -79 44 -115 48c2 -11 14 -56 14 -81c0 -8 -8 -47 -8 -56c0 -20 22 -48 40 -63v-13h-112v13c18 15 40 44 40 63c0 8 -8 47 -8 56c0 27 13 74 14 81c-36 -4 -67 -7 -115 -48h-10l1 110h9c43 -42 85 -43 115 -44c-3 36 -9 47 -28 74c11 34 25 92 25 161
s-10 118 -25 169c19 26 25 38 28 73c-29 0 -71 -1 -115 -43h-9l-1 110h10c48 -42 79 -45 115 -48c-1 7 -14 53 -14 80c0 8 8 47 8 56c0 20 -22 49 -40 63v13z" />
    <glyph glyph-name="periodcentered" unicode="&#xb7;" horiz-adv-x="177" 
d="M27 302c0 7 7 11 13 15c20 11 29 26 37 40c2 3 5 8 13 8c12 0 17 -18 17 -19c1 0 11 -21 32 -32c12 -6 12 -7 12 -14c0 -6 -1 -8 -8 -12c-13 -6 -22 -11 -39 -38c-4 -7 -7 -11 -14 -11s-10 3 -15 10c-12 21 -17 28 -37 39c-7 4 -11 6 -11 14z" />
    <glyph glyph-name="paragraph" unicode="&#xb6;" horiz-adv-x="479" 
d="M393 -90l-3 -25c-165 19 -223 81 -255 126c-48 68 -82 157 -82 189c0 30 58 194 154 254c84 52 215 61 272 65l-3 -26c-11 -2 -14 -2 -43 -5c-62 -6 -85 -9 -125 -21l-11 -536c13 -4 77 -17 96 -21zM271 -58l10 516c-42 -11 -61 -33 -72 -68c-15 -48 -16 -171 -16 -269
c0 -140 20 -150 78 -179z" />
    <glyph glyph-name="bullet" unicode="&#x2022;" horiz-adv-x="375" 
d="M188 484c72 0 130 -59 130 -131c0 -71 -57 -131 -130 -131c-74 0 -131 60 -131 131c0 72 58 131 131 131z" />
    <glyph glyph-name="quotesinglbase" unicode="&#x201a;" horiz-adv-x="198" 
d="M94 117h13c9 -22 31 -38 38 -42c12 -6 13 -7 13 -12c0 -4 -2 -8 -5 -13c-4 -8 -14 -50 -17 -58c-17 -49 -41 -75 -97 -105l-9 17c21 13 65 39 65 77c0 5 0 30 -28 44c-9 4 -17 19 -17 28c0 4 4 7 15 17c16 14 24 28 29 47z" />
    <glyph glyph-name="quotedblbase" unicode="&#x201e;" horiz-adv-x="417" 
d="M59 -112l-11 17c56 30 64 60 64 76c0 29 -19 43 -35 54c-11 9 -11 16 -12 23c34 15 43 46 47 59h10c6 -10 15 -27 34 -37c18 -9 20 -10 20 -17c0 -2 -6 -10 -6 -10c-5 -7 -6 -10 -9 -28c-9 -58 -34 -99 -102 -137zM245 -112l-10 17c51 27 64 55 64 76c0 15 -6 33 -27 49
c-1 0 -7 5 -8 5c-11 9 -12 16 -12 23c34 15 43 46 47 59h10c4 -8 14 -27 34 -37c12 -6 20 -11 20 -16c0 -3 -5 -9 -6 -11c-6 -8 -7 -14 -9 -28c-9 -58 -35 -99 -103 -137z" />
    <glyph glyph-name="quotedblright" unicode="&#x201d;" horiz-adv-x="417" 
d="M50 444l-11 15c31 19 65 43 65 78c0 10 -5 38 -32 46c-10 14 -12 19 -12 23c0 7 4 9 9 12c20 11 33 34 37 54h12c12 -22 18 -31 38 -43c0 -1 4 -3 5 -4c3 -1 6 -3 6 -9c0 -2 -1 -3 -3 -7c-6 -10 -6 -10 -8 -23c-9 -73 -46 -116 -106 -142zM235 444l-11 15
c31 19 65 43 65 78c0 10 -5 38 -32 46c-10 14 -12 19 -12 23c0 7 4 9 9 12c20 11 33 34 37 54h12c12 -22 18 -31 38 -43c0 -1 4 -3 5 -4c3 -1 6 -3 6 -9c0 -2 -1 -3 -3 -7c-6 -10 -6 -10 -8 -23c-9 -73 -46 -116 -106 -142z" />
    <glyph glyph-name="guillemotright" unicode="&#xbb;" horiz-adv-x="458" 
d="M32 -2l99 188l-99 191h17l176 -189l-177 -190h-16zM34 -2l98 189l-98 190h15l176 -189l-175 -190h-16zM236 -2l99 188l-99 191h17l176 -189l-177 -190h-16z" />
    <glyph glyph-name="ellipsis" unicode="&#x2026;" horiz-adv-x="1000" 
d="M793 44c0 7 7 11 13 15c20 11 29 26 37 40c2 4 6 8 13 8c5 0 9 -2 12 -7c0 -3 10 -28 37 -44c11 -6 12 -7 12 -14c0 -6 -1 -8 -9 -12c-11 -5 -21 -10 -38 -38c-5 -7 -7 -11 -14 -11s-10 3 -15 10c-13 23 -17 28 -37 39c-7 4 -11 6 -11 14zM438 44c0 7 7 11 13 15
c20 11 29 26 37 40c2 4 6 8 13 8c5 0 9 -2 12 -7c0 -3 10 -28 37 -44c11 -6 12 -7 12 -14c0 -6 -1 -8 -9 -12c-11 -5 -21 -10 -38 -38c-5 -7 -7 -11 -14 -11s-10 3 -15 10c-13 23 -17 28 -37 39c-7 4 -11 6 -11 14zM83 44c0 7 7 11 13 15c20 11 29 26 37 40c2 4 6 8 13 8
c5 0 9 -2 12 -7c0 -3 10 -28 37 -44c11 -6 12 -7 12 -14c0 -6 -1 -8 -9 -12c-11 -5 -21 -10 -38 -38c-5 -7 -7 -11 -14 -11s-10 3 -15 10c-13 23 -17 28 -37 39c-7 4 -11 6 -11 14z" />
    <glyph glyph-name="perthousand" unicode="&#x2030;" horiz-adv-x="1135" 
d="M205 646c79 0 147 -63 147 -156c0 -80 -53 -172 -152 -172c-77 0 -147 55 -147 158c0 101 71 170 152 170zM197 626c-63 0 -90 -69 -90 -132c0 -80 39 -156 100 -156c26 0 88 18 88 132c0 69 -31 156 -98 156zM591 310c78 0 147 -64 147 -157c0 -80 -53 -172 -152 -172
c-77 0 -148 56 -148 158s72 171 153 171zM583 289c-63 0 -91 -68 -91 -132c0 -79 40 -155 101 -155c26 0 88 17 88 132c0 69 -31 155 -98 155zM944 310c79 0 147 -64 147 -157c0 -80 -53 -172 -151 -172c-78 0 -148 56 -148 158s71 171 152 171zM936 289
c-63 0 -90 -68 -90 -132c0 -79 40 -155 100 -155c26 0 88 17 88 132c0 69 -31 155 -98 155zM158 -48l-17 7c96 138 275 435 320 517c31 55 75 137 92 165c2 2 3 4 11 17c20 0 26 0 48 7c-154 -242 -367 -601 -413 -692c-18 -1 -29 -6 -41 -21z" />
    <glyph glyph-name="questiondown" unicode="&#xbf;" horiz-adv-x="281" 
d="M231 -211l-14 -1c-10 42 -21 43 -52 47c-45 6 -131 43 -131 152c0 64 25 127 80 159c27 16 32 18 36 60c1 15 1 18 10 18s10 -5 10 -13l-5 -86c-1 -21 -7 -22 -46 -30c-57 -12 -57 -39 -57 -90c0 -62 30 -97 136 -109c18 -2 42 -4 42 -22c0 -4 -8 -37 -9 -44
c-1 -6 0 -35 0 -41zM227 330c0 -7 -7 -11 -13 -15c-20 -11 -29 -26 -37 -40c-2 -3 -5 -8 -13 -8c-12 0 -17 18 -17 19c-1 0 -11 21 -32 32c-12 6 -12 7 -12 14c0 6 1 8 8 12c13 6 22 11 39 38c4 7 7 11 14 11s10 -3 15 -10c12 -21 17 -28 37 -39c7 -4 11 -6 11 -14z" />
    <glyph glyph-name="grave" unicode="`" horiz-adv-x="333" 
d="M161 608l96 -174h-23l-141 174h68z" />
    <glyph glyph-name="acute" unicode="&#xb4;" horiz-adv-x="333" 
d="M93 434l96 174h68l-141 -174h-23z" />
    <glyph glyph-name="circumflex" unicode="&#x2c6;" horiz-adv-x="333" 
d="M145 608h44l97 -174h-23l-95 105l-97 -105h-23z" />
    <glyph glyph-name="tilde" unicode="&#x2dc;" horiz-adv-x="333" 
d="M283 550h20c-2 -97 -72 -97 -80 -97c-28 0 -43 9 -83 33c-27 16 -32 19 -46 19c-20 0 -44 -15 -43 -52h-20c4 52 24 97 81 97c26 0 43 -11 73 -30c20 -13 35 -23 53 -23c21 0 44 16 45 53z" />
    <glyph glyph-name="macron" unicode="&#xaf;" horiz-adv-x="333" 
d="M29 524h275v-36h-275v36z" />
    <glyph glyph-name="breve" unicode="&#x2d8;" horiz-adv-x="333" 
d="M261 588h20c-6 -105 -70 -135 -114 -135c-50 0 -109 37 -114 135h20c13 -69 61 -79 94 -79c37 0 82 13 94 79z" />
    <glyph glyph-name="dotaccent" unicode="&#x2d9;" horiz-adv-x="333" 
d="M129 495c0 20 16 38 37 38c22 0 38 -18 38 -38c0 -19 -16 -37 -38 -37c-21 0 -37 17 -37 37z" />
    <glyph glyph-name="dieresis" unicode="&#xa8;" horiz-adv-x="333" 
d="M207 495c0 21 17 38 37 38c21 0 38 -18 38 -38s-17 -37 -38 -37c-20 0 -37 16 -37 37zM52 495c0 20 17 38 38 38c22 0 37 -18 37 -38c0 -19 -16 -37 -37 -37s-38 17 -38 37z" />
    <glyph glyph-name="ring" unicode="&#x2da;" horiz-adv-x="333" 
d="M89 523c0 42 35 77 78 77c44 0 78 -36 78 -77s-33 -78 -78 -78c-43 0 -78 35 -78 78zM114 523c0 -30 24 -53 53 -53s53 23 53 53c0 28 -23 53 -53 53s-53 -24 -53 -53z" />
    <glyph glyph-name="cedilla" unicode="&#xb8;" horiz-adv-x="333" 
d="M184 10h25l-25 -47c39 -13 70 -36 70 -77c0 -64 -75 -107 -174 -102v20c120 3 123 52 123 64c0 38 -37 50 -77 52c9 13 50 72 58 90z" />
    <glyph glyph-name="hungarumlaut" unicode="&#x2dd;" horiz-adv-x="333" 
d="M253 608h68l-142 -175h-22zM132 608h69l-143 -175h-22z" />
    <glyph glyph-name="ogonek" unicode="&#x2db;" horiz-adv-x="333" 
d="M243 -183l7 -16c-28 -14 -44 -20 -71 -20c-74 0 -98 58 -98 96c0 50 35 90 76 129h25c-32 -33 -52 -61 -52 -104c0 -67 43 -93 75 -93c14 0 30 5 38 8z" />
    <glyph glyph-name="caron" unicode="&#x2c7;" horiz-adv-x="333" 
d="M199 434h-44l-97 174h23l96 -106l96 106h23z" />
    <glyph glyph-name="emdash" unicode="&#x2014;" horiz-adv-x="1000" 
d="M-6 161v53h1012v-53h-1012z" />
    <glyph glyph-name="AE" unicode="&#xc6;" horiz-adv-x="979" 
d="M384 621v19c32 -4 70 -6 108 -7c39 -2 78 -2 110 -2l220 1l89 1c6 0 7 -2 7 -6c0 -2 -12 -104 -25 -119c-4 1 -8 3 -13 4c3 13 5 26 5 37c0 42 -45 58 -143 58c-24 0 -103 -2 -163 -10c-8 -42 -10 -87 -11 -170v-51c0 -11 0 -28 1 -33c22 -2 78 -4 102 -4l81 1
c80 0 87 0 99 65h18c0 -29 -1 -155 0 -181h-18c-4 87 -19 87 -162 87h-49l-70 -1c-2 -15 -2 -77 -2 -96c0 -52 2 -123 9 -173c48 -12 99 -14 149 -14c166 0 190 54 215 121l16 1c-4 -50 -15 -93 -40 -150c-44 3 -78 4 -134 4h-63c-49 0 -176 -1 -294 -10l-1 17
c48 8 56 19 63 42c11 37 13 103 13 135l-1 34c-36 3 -116 5 -149 5l-35 -1c-20 0 -53 -1 -72 -4l-50 -83c-40 -65 -40 -70 -40 -82c0 -29 38 -39 70 -43v-18c-12 1 -74 4 -98 4h-43c-43 0 -60 -2 -76 -3v18c52 11 88 18 237 258l95 154c31 49 78 130 108 180
c-20 6 -47 13 -63 15zM445 553l-21 -34l-157 -262c25 -2 60 -3 86 -3h47l44 1c9 0 49 2 58 2c1 11 1 13 0 38l-3 169c-1 19 -4 135 -21 135c-6 0 -22 -28 -33 -46z" />
    <glyph glyph-name="ordfeminine" unicode="&#xaa;" horiz-adv-x="240" 
d="M80 588l-42 -17c-1 3 -3 10 -3 16c0 34 83 57 98 57c5 0 61 -6 61 -83c0 0 0 -25 -1 -38c0 -7 -2 -40 -2 -45c0 -19 3 -39 15 -39s25 5 34 9l-1 -15c-4 -2 -28 -11 -29 -12c-1 0 -27 -10 -32 -10c-13 0 -24 18 -27 28c-14 -7 -54 -28 -86 -28c-37 0 -40 27 -40 42
c0 13 0 33 16 43c8 4 43 21 108 29l2 33c2 50 -30 61 -48 61c-12 0 -27 -7 -27 -17c0 -4 1 -7 4 -14zM148 454c-1 14 2 37 2 51c-59 3 -86 -19 -86 -37c0 -16 10 -34 26 -34c14 0 39 10 58 20z" />
    <glyph glyph-name="Lslash" unicode="&#x141;" horiz-adv-x="563" 
d="M406 0h-365l-1 15c69 14 71 22 72 184v32l-68 -52v36l68 52l1 147c2 182 1 195 -66 197v17c92 -1 102 -2 112 -2c46 0 82 2 108 4l-1 -19c-31 -3 -63 -6 -74 -32c-8 -20 -12 -215 -12 -266l182 138v-35l-183 -138c-1 -48 -1 -87 -1 -118c0 -81 3 -109 13 -119
c8 -7 13 -12 110 -12c105 0 164 23 186 35c11 7 32 23 43 65l16 -2c-3 -21 -12 -73 -38 -135c-22 4 -41 6 -58 7s-31 1 -44 1z" />
    <glyph glyph-name="Oslash" unicode="&#xd8;" horiz-adv-x="740" 
d="M595 557l91 90l21 -21l-91 -89c57 -62 85 -135 85 -220c0 -178 -141 -329 -338 -329c-123 0 -191 61 -217 86l-89 -88l-18 20l88 87c-75 87 -86 181 -86 224c0 174 154 325 338 325c100 0 174 -47 216 -85zM180 146l367 363c-23 26 -90 99 -199 99
c-125 0 -234 -98 -234 -254c0 -57 18 -140 66 -208zM565 486l-367 -361c57 -65 132 -102 206 -102c103 0 223 76 223 255c0 60 -16 139 -62 208z" />
    <glyph glyph-name="OE" unicode="&#x152;" horiz-adv-x="979" 
d="M946 144l15 1c-3 -34 -14 -94 -42 -148c-20 0 -120 2 -142 2h-245c-27 0 -61 0 -134 -6c-28 -2 -52 -4 -70 -4c-150 0 -304 136 -304 325c0 176 149 323 345 323c14 0 30 -1 44 -2c60 -3 72 -3 178 -4l161 1c106 1 117 1 167 2c1 -1 3 -3 4 -5c0 -7 -4 -34 -4 -40
c-2 -47 -8 -64 -19 -83l-16 6c3 11 6 22 6 36c0 55 -70 59 -154 59c-36 0 -110 -2 -142 -9c-7 -61 -9 -150 -9 -213v-49c10 -1 33 -2 52 -2c112 0 157 0 187 6c17 3 26 40 31 60h16c-2 -107 -2 -115 -1 -184h-17c0 87 -16 92 -196 92c-28 0 -31 0 -71 -3
c-2 -20 -3 -80 -3 -102c0 -30 0 -114 9 -166c40 -12 96 -13 112 -13c151 0 203 13 242 120zM514 314v92c0 125 -4 158 -19 173c-18 19 -90 31 -139 31c-123 0 -258 -72 -258 -265c0 -188 143 -323 279 -323c56 0 106 16 123 21c9 50 13 111 14 271z" />
    <glyph glyph-name="ordmasculine" unicode="&#xba;" horiz-adv-x="313" 
d="M31 526c0 73 61 116 130 116c67 0 121 -50 121 -111c0 -59 -46 -117 -124 -117c-54 0 -127 32 -127 112zM75 543c0 -52 36 -112 86 -112c42 0 76 34 76 87s-40 105 -91 105c-43 0 -71 -36 -71 -80z" />
    <glyph glyph-name="ae" unicode="&#xe6;" horiz-adv-x="552" 
d="M123 283l-59 -24c-3 9 -7 19 -7 28c0 34 94 87 150 87c36 0 63 -36 77 -53c54 50 72 54 96 54c59 0 117 -39 137 -108c2 -9 4 -12 18 -17v-15c-46 -6 -181 -30 -243 -50c-1 -131 105 -153 131 -153c19 0 42 11 62 23c22 14 24 16 28 16c7 0 9 -7 9 -10
c0 -13 -78 -67 -153 -67c-58 0 -95 38 -111 68c-77 -44 -113 -64 -162 -64c-44 0 -61 26 -61 66c0 20 5 44 16 66c38 17 92 41 182 54v41c0 83 -31 111 -73 111c-38 0 -41 -18 -41 -31c0 -8 2 -16 4 -22zM292 209l157 34c6 1 13 5 13 11c0 17 -31 91 -102 91
c-34 0 -69 -46 -68 -136zM198 52l51 28c-6 17 -9 27 -13 72c-10 1 -20 1 -29 1c-80 0 -113 -30 -113 -70c0 -12 5 -51 40 -51c14 0 32 3 64 20z" />
    <glyph glyph-name="dotlessi" unicode="&#x131;" horiz-adv-x="240" 
d="M32 -2l2 15c20 2 42 5 47 15c6 12 9 130 9 155c0 93 -3 107 -11 116c-5 5 -47 3 -47 11c0 7 5 9 9 10c39 12 81 37 114 64c3 0 6 -1 9 -2c-10 -44 -16 -164 -16 -215c0 -22 1 -108 8 -132c4 -12 10 -13 33 -15c25 -1 27 -2 34 -3l6 -14z" />
    <glyph glyph-name="lslash" unicode="&#x142;" horiz-adv-x="240" 
d="M155 373l70 54v-38l-71 -54l-2 -106c0 -6 -2 -159 7 -187c7 -21 64 -27 74 -28v-18c-14 1 -92 7 -129 7c-13 0 -63 -2 -91 -5v15c22 4 59 10 69 53c8 34 12 182 13 228l-71 -54v38l71 54c1 17 2 91 2 107c0 33 0 125 -13 143c-6 9 -17 12 -33 12c-10 0 -15 -1 -22 -2v15
c50 21 96 41 131 66h15c-16 -59 -19 -196 -19 -209z" />
    <glyph glyph-name="oslash" unicode="&#xf8;" horiz-adv-x="469" 
d="M366 329l48 46l15 -15l-47 -46c27 -28 49 -69 49 -125c0 -102 -76 -194 -194 -194c-35 0 -83 7 -135 46l-49 -49l-14 15l48 48c-34 35 -49 77 -49 127c0 118 94 192 204 192c20 0 72 -1 124 -45zM130 97l196 192c-13 19 -50 61 -108 61c-67 0 -116 -59 -116 -140
c0 -26 7 -77 28 -113zM338 271l-197 -192c24 -34 57 -62 101 -62c67 0 123 60 123 150c0 26 -7 71 -27 104z" />
    <glyph glyph-name="oe" unicode="&#x153;" horiz-adv-x="688" 
d="M668 250l-1 -16c-85 -14 -180 -34 -225 -44c-2 0 -12 -3 -13 -3c2 -58 3 -94 43 -126c29 -23 67 -31 86 -31c22 0 39 10 70 28c4 2 20 10 21 10c4 0 10 -3 10 -8c0 -17 -87 -68 -148 -68c-82 0 -115 57 -127 76c-41 -56 -109 -74 -151 -74c-91 0 -195 68 -195 191
s98 192 201 192c60 0 116 -26 158 -81c32 48 98 79 120 79c74 0 106 -51 135 -110c5 -11 6 -12 16 -15zM428 208l152 33c6 1 13 3 13 13c0 31 -45 92 -94 92c-68 0 -70 -103 -71 -138zM101 220c0 -71 40 -201 143 -201c60 0 119 53 119 154c0 81 -49 178 -145 178
c-59 0 -117 -45 -117 -131z" />
    <glyph glyph-name="germandbls" unicode="&#xdf;" horiz-adv-x="490" 
d="M300 366v-2c49 -14 147 -43 147 -186c0 -141 -94 -189 -151 -189c-19 0 -42 5 -42 30c0 15 6 29 24 29c10 0 56 -22 67 -22c25 0 46 52 46 102c0 33 -9 113 -64 171c-39 41 -77 48 -112 54l-1 21c97 -1 154 29 154 134c0 99 -54 141 -105 141c-76 0 -90 -70 -97 -126
c-9 -76 -9 -245 -9 -329c0 -26 0 -149 4 -162c4 -8 50 -16 59 -19v-16c-10 1 -39 2 -43 2l-157 1v13c1 0 8 1 10 2c49 8 55 9 60 28c9 30 9 108 9 145c0 139 -5 140 -18 143c-9 2 -56 4 -56 9c0 21 5 21 60 21c13 0 15 3 15 16c0 137 30 296 175 296c102 0 157 -76 157 -154
c0 -51 -24 -130 -132 -153z" />
    <glyph glyph-name="onesuperior" unicode="&#xb9;" horiz-adv-x="313" 
d="M67 297l-1 18c39 -1 49 5 55 17c10 19 10 149 10 181c0 57 -1 72 -5 77c-6 7 -43 7 -57 7l-1 16c70 2 89 4 164 15l5 -16c-42 -9 -46 -10 -49 -26c-8 -47 -8 -106 -8 -160c0 -18 1 -90 7 -100c5 -8 45 -11 60 -12l-1 -17c-35 2 -44 3 -65 3c-36 0 -77 -1 -114 -3z" />
    <glyph glyph-name="logicalnot" unicode="&#xac;" 
d="M54 447v46h560v-300h-45v254h-515z" />
    <glyph glyph-name="mu" unicode="&#xb5;" horiz-adv-x="506" 
d="M56 176v198h66v-225c0 -40 0 -109 82 -109c42 0 72 25 123 69v265h65v-237c0 -77 9 -105 40 -105c32 0 39 32 47 66h21c-2 -24 -11 -113 -94 -113c-69 0 -76 64 -79 95c-53 -58 -103 -93 -157 -93c-61 0 -78 35 -87 59h-2c0 -33 0 -111 7 -137c15 -55 17 -61 17 -78
c0 -29 -19 -47 -39 -47c-19 0 -40 17 -40 46c0 24 14 69 16 74c6 24 13 104 13 152z" />
    <glyph glyph-name="trademark" unicode="&#x2122;" horiz-adv-x="1042" 
d="M160 279v16c46 -1 57 6 57 79v276h-45c-43 0 -70 -5 -77 -68h-13v92h329v-92h-12c-7 52 -19 68 -77 68h-45v-276c0 -73 10 -80 57 -79v-16h-174zM446 674h116l144 -310l140 310h111v-16c-51 -3 -56 -8 -56 -63v-231c0 -58 5 -68 56 -69v-16h-169v16c51 0 58 9 58 69v251
h-2l-150 -336h-8l-155 330h-2v-248c0 -57 0 -66 57 -66v-16h-140v16c56 0 56 11 56 69v224c0 50 0 66 -56 70v16z" />
    <glyph glyph-name="Eth" unicode="&#xd0;" horiz-adv-x="719" 
d="M20 2v18c61 0 66 18 69 54c6 53 6 107 6 230h-75v29h75c-1 107 -1 212 -13 245c-6 17 -20 28 -57 27l-1 18c74 0 147 2 220 11c27 3 41 4 70 4c189 0 367 -116 367 -316c0 -177 -141 -320 -370 -320c-12 0 -64 2 -75 2c-26 0 -142 -3 -166 -3zM340 333v-29h-177
c0 -36 3 -212 3 -252c52 -17 82 -28 142 -28c213 0 288 158 288 298c0 194 -160 293 -296 293c-42 0 -89 -8 -127 -25c-6 -35 -10 -200 -10 -257h177z" />
    <glyph glyph-name="onehalf" unicode="&#xbd;" horiz-adv-x="688" 
d="M139 -44l-14 6c45 66 229 383 389 703c17 1 31 4 46 9c-42 -78 -117 -199 -159 -278l-106 -199c-17 -31 -96 -186 -114 -221c-18 -4 -27 -8 -42 -20zM63 297l-1 18c39 -1 49 5 55 17c10 19 10 149 10 181c0 57 -1 72 -5 77c-6 7 -43 7 -57 7l-1 16c70 2 89 4 164 15
l5 -16c-42 -9 -46 -10 -49 -26c-9 -47 -8 -106 -8 -160c0 -18 1 -90 7 -100c5 -8 45 -11 60 -12l-1 -17c-35 2 -44 3 -65 3c-36 0 -77 -1 -114 -3zM388 -3l-7 9l46 41c57 50 143 132 143 186c0 39 -31 58 -66 58c-42 0 -62 -19 -74 -31l-18 14c18 18 54 52 114 52
c55 0 98 -31 98 -79c0 -49 -36 -85 -102 -145l-70 -64l81 -1c71 0 81 0 112 51l20 -10l-34 -56c-13 -22 -18 -30 -22 -35h-18c-1 6 -3 9 -7 11c-3 1 -8 1 -16 1h-136c-15 0 -25 0 -44 -2z" />
    <glyph glyph-name="plusminus" unicode="&#xb1;" 
d="M54 421v46h256v257h46v-257h258v-46h-258v-256h-46v256h-256zM54 0v46h560v-46h-560z" />
    <glyph glyph-name="Thorn" unicode="&#xde;" horiz-adv-x="531" 
d="M48 -9h-14v15c50 13 60 20 63 37c2 8 5 83 5 160c0 148 -1 176 -6 305c-2 74 -3 100 -72 101c-1 5 -1 7 -1 10s0 5 1 9c15 0 86 -2 102 -2c28 0 68 0 115 3c1 -4 1 -7 1 -9c0 -3 0 -6 -2 -11c-58 -6 -66 -9 -71 -88c14 1 32 3 58 3c192 0 275 -118 275 -207
c0 -55 -39 -198 -280 -198c-27 0 -41 2 -54 3c3 -104 3 -105 93 -111v-20c-29 2 -49 4 -66 5s-31 1 -49 1c-7 0 -27 -1 -48 -3c-21 -1 -42 -3 -50 -3zM168 155c16 -4 43 -10 78 -10c121 0 178 77 178 167c0 27 -12 187 -188 187c-34 0 -54 -6 -68 -11
c-3 -47 -3 -114 -3 -163c0 -4 1 -113 3 -170z" />
    <glyph glyph-name="onequarter" unicode="&#xbc;" horiz-adv-x="688" 
d="M463 -2l-1 18c16 0 36 1 46 7c6 3 6 9 9 62v14h-58c-24 0 -51 -2 -98 -4l-6 9c68 72 135 144 191 226c10 2 13 3 26 7c-3 -36 -2 -97 -3 -135l-1 -75c40 2 45 2 60 16l17 -6l-22 -41c-17 1 -21 1 -55 2c-1 -77 3 -78 35 -83l-1 -15c-28 0 -112 0 -139 -2zM452 174
l-43 -47h109l1 41c1 30 1 35 1 84c-22 -26 -45 -52 -68 -78zM62 297l-1 18c39 -1 49 5 55 17c9 19 10 149 10 181c0 57 -1 72 -5 77c-6 7 -44 7 -58 7v16c89 2 122 8 150 13c2 0 11 2 13 2l6 -16c-42 -9 -47 -10 -49 -26c-6 -47 -8 -106 -8 -160c0 -18 0 -90 7 -100
c5 -8 45 -11 60 -12l-1 -17c-35 2 -45 3 -65 3c-36 0 -78 -1 -114 -3zM139 -44l-14 6c45 66 229 383 389 703c17 1 31 4 46 9c-42 -78 -117 -200 -159 -278l-106 -199c-17 -31 -96 -186 -114 -221c-18 -4 -27 -8 -42 -20z" />
    <glyph glyph-name="divide" unicode="&#xf7;" 
d="M300 129c0 18 17 30 33 30c17 0 32 -15 32 -32s-14 -33 -32 -33c-19 0 -33 17 -33 35zM300 559c0 18 17 30 33 30c17 0 32 -15 32 -32s-14 -33 -32 -33c-19 0 -33 17 -33 35zM54 319v45h560v-45h-560z" />
    <glyph glyph-name="brokenbar" unicode="&#xa6;" horiz-adv-x="531" 
d="M242 -144v375h47v-375h-47zM242 367v375h47v-375h-47z" />
    <glyph glyph-name="degree" unicode="&#xb0;" horiz-adv-x="427" 
d="M214 625c88 0 160 -71 160 -160s-72 -160 -160 -160s-161 71 -161 160s73 160 161 160zM213 582c-63 0 -116 -52 -116 -116s52 -117 116 -117s116 52 116 117s-53 116 -116 116z" />
    <glyph glyph-name="thorn" unicode="&#xfe;" horiz-adv-x="479" 
d="M21 592l-1 15c2 0 12 5 14 6c83 36 102 49 118 60h15c-23 -83 -21 -268 -20 -347l42 17c13 6 69 27 98 27c76 0 157 -79 157 -175c0 -164 -181 -197 -225 -197c-12 0 -38 3 -72 14c-2 -83 -2 -96 -2 -109v-89c0 -60 5 -65 34 -66l36 -2c9 0 12 -6 12 -9c0 -6 -4 -8 -7 -8
h-48c-35 0 -109 -6 -140 -8l-2 15c35 3 40 10 46 24c12 29 13 176 13 221l1 61c1 76 4 491 -11 533c-5 15 -18 19 -36 19c-10 0 -15 -1 -22 -2zM146 306l-1 -247l45 -15c37 -13 56 -17 71 -17c40 0 128 30 128 125c0 111 -90 183 -145 183c-15 0 -30 -5 -98 -29z" />
    <glyph glyph-name="threequarters" unicode="&#xbe;" horiz-adv-x="688" 
d="M463 -2l-1 18c16 0 36 1 46 7c6 3 6 9 9 62v14h-58c-24 0 -51 -2 -98 -4l-6 9c68 72 135 144 191 226c10 2 13 3 26 7c-3 -36 -2 -97 -3 -135l-1 -75c40 2 45 2 60 16l17 -6l-22 -41c-17 1 -21 1 -55 2c-1 -77 3 -78 35 -83l-1 -15c-28 0 -112 0 -139 -2zM452 174
l-43 -47h109l1 41c1 30 1 35 1 84c-22 -26 -45 -52 -68 -78zM65 570l-15 15c17 12 54 40 103 40c48 0 85 -24 85 -61c0 -33 -27 -57 -45 -73c27 -15 71 -40 71 -87c0 -52 -51 -108 -135 -108c-11 0 -68 0 -107 47c4 5 22 34 27 39c1 1 3 5 5 8l21 -11c-7 -10 -8 -11 -8 -15
c0 -14 45 -47 82 -47c38 0 70 28 70 65c0 40 -36 62 -68 79l-20 -12l-14 15c38 25 71 48 71 83c0 29 -26 49 -57 49c-28 0 -49 -14 -66 -26zM139 -44l-14 6c45 66 229 383 389 703c17 1 31 4 46 9c-42 -78 -117 -200 -159 -278l-106 -199c-17 -31 -96 -186 -114 -221
c-18 -4 -27 -8 -42 -20z" />
    <glyph glyph-name="twosuperior" unicode="&#xb2;" horiz-adv-x="313" 
d="M19 297l-7 9l46 41c57 50 143 132 143 186c0 39 -31 58 -66 58c-42 0 -62 -19 -74 -31l-18 14c18 18 54 52 114 52c55 0 98 -31 98 -79c0 -49 -36 -85 -102 -145l-70 -64l81 -1c71 0 81 0 112 51l20 -10l-34 -56c-13 -22 -18 -30 -22 -35h-18c-3 11 -6 12 -23 12h-136
c-15 0 -25 0 -44 -2z" />
    <glyph glyph-name="registered" unicode="&#xae;" horiz-adv-x="813" 
d="M202 562v19h201c98 0 155 -50 155 -117c0 -86 -88 -109 -116 -116l109 -155c31 -44 47 -45 63 -46v-17h-96l-153 211h-40v-123c0 -56 0 -71 62 -71v-17h-191v17c54 0 54 21 54 72v273c0 53 0 69 -48 70zM325 550v-187c71 0 149 14 149 95c0 53 -40 100 -105 100
c-19 0 -31 -4 -44 -8zM406 723c202 0 370 -163 370 -370c0 -204 -166 -369 -370 -369s-369 165 -369 369c0 207 167 370 369 370zM406 691c-184 0 -337 -149 -337 -338c0 -186 150 -337 337 -337s338 151 338 337c0 190 -154 338 -338 338z" />
    <glyph glyph-name="minus" unicode="&#x2212;" 
d="M54 319v46h560v-46h-560z" />
    <glyph glyph-name="eth" unicode="&#xf0;" horiz-adv-x="510" 
d="M278 530l-136 -51l-8 20l131 49c-25 30 -57 69 -140 110l11 19c94 -43 140 -84 168 -115l105 40l8 -20l-98 -36c62 -72 133 -188 133 -332c0 -167 -111 -220 -197 -220c-94 0 -196 67 -196 186c0 139 115 194 188 194c46 0 83 -18 116 -48l2 2c-17 95 -74 183 -87 202z
M123 214c0 -96 57 -198 141 -198c73 0 121 71 121 152c0 84 -57 184 -147 184c-67 0 -115 -61 -115 -138z" />
    <glyph glyph-name="multiply" unicode="&#xd7;" 
d="M301 341l-221 222l32 33l222 -222l222 222l32 -33l-222 -222l220 -220l-33 -32l-219 220l-221 -220l-33 32z" />
    <glyph glyph-name="threesuperior" unicode="&#xb3;" horiz-adv-x="313" 
d="M70 570l-15 15c17 12 54 40 103 40c48 0 85 -24 85 -61c0 -33 -27 -57 -45 -73c27 -15 71 -40 71 -87c0 -52 -51 -108 -135 -108c-11 0 -68 0 -107 47c11 13 32 46 32 47l21 -11c-7 -10 -8 -11 -8 -15c0 -14 45 -47 82 -47c38 0 70 28 70 65c0 40 -36 62 -68 79l-20 -12
l-14 15c38 25 71 48 71 83c0 29 -26 49 -56 49c-29 0 -50 -14 -67 -26z" />
    <glyph glyph-name="copyright" unicode="&#xa9;" horiz-adv-x="813" 
d="M568 591h21l10 -146h-20c-9 31 -38 123 -158 123c-100 0 -167 -75 -167 -203c0 -34 0 -215 172 -215c57 0 116 19 163 84l20 -9c-49 -71 -114 -106 -200 -106c-148 0 -242 111 -242 231c0 127 101 241 260 241c37 0 50 -4 97 -19c11 -4 15 -4 19 -4c16 0 21 12 25 23z
M406 723c202 0 370 -163 370 -370c0 -204 -166 -369 -370 -369s-369 165 -369 369c0 207 167 370 369 370zM406 691c-184 0 -337 -149 -337 -338c0 -186 150 -337 337 -337s338 151 338 337c0 190 -154 338 -338 338z" />
    <glyph glyph-name="Aacute" unicode="&#xc1;" horiz-adv-x="625" 
d="M422 -2v16c21 4 49 10 49 32c0 20 -18 69 -22 78l-36 98c-28 4 -64 4 -92 4h-39c-30 1 -74 -1 -102 -6l-36 -90c-19 -45 -24 -58 -24 -71c0 -20 9 -37 78 -47v-16c-24 3 -49 7 -97 7c-35 0 -65 -2 -89 -4v14c28 7 43 21 45 23c24 20 84 162 99 203l78 187
c29 67 61 142 79 204c0 2 2 8 3 9l16 1c15 -55 23 -76 33 -104l103 -275c31 -81 72 -191 95 -222c11 -16 32 -20 52 -22v-17c-20 2 -36 4 -77 4c-59 0 -100 -5 -116 -6zM267 438l-55 -142c-10 -27 -11 -30 -15 -38c37 -6 84 -6 85 -6l45 1c9 0 57 1 73 2
c-4 11 -17 49 -22 59l-35 90c-7 17 -38 89 -46 106c-11 -25 -25 -61 -30 -72zM270 681l96 174h68l-141 -174h-23z" />
    <glyph glyph-name="Acircumflex" unicode="&#xc2;" horiz-adv-x="625" 
d="M422 -2v16c21 4 49 10 49 32c0 20 -18 69 -22 78l-36 98c-28 4 -64 4 -92 4h-39c-30 1 -74 -1 -102 -6l-36 -90c-19 -45 -24 -58 -24 -71c0 -20 9 -37 78 -47v-16c-24 3 -49 7 -97 7c-35 0 -65 -2 -89 -4v14c28 7 43 21 45 23c24 20 84 162 99 203l78 187
c29 67 61 142 79 204c0 2 2 8 3 9l16 1c15 -55 23 -76 33 -104l103 -275c31 -81 72 -191 95 -222c11 -16 32 -20 52 -22v-17c-20 2 -36 4 -77 4c-59 0 -100 -5 -116 -6zM267 438l-55 -142c-10 -27 -11 -30 -15 -38c37 -6 84 -6 85 -6l45 1c9 0 57 1 73 2
c-4 11 -17 49 -22 59l-35 90c-7 17 -38 89 -46 106c-11 -25 -25 -61 -30 -72zM291 855h44l97 -174h-23l-95 105l-97 -105h-23z" />
    <glyph glyph-name="Adieresis" unicode="&#xc4;" horiz-adv-x="625" 
d="M422 -2v16c21 4 49 10 49 32c0 20 -18 69 -22 78l-36 98c-28 4 -64 4 -92 4h-39c-30 1 -74 -1 -102 -6l-36 -90c-19 -45 -24 -58 -24 -71c0 -20 9 -37 78 -47v-16c-24 3 -49 7 -97 7c-35 0 -65 -2 -89 -4v14c28 7 43 21 45 23c24 20 84 162 99 203l78 187
c29 67 61 142 79 204c0 2 2 8 3 9l16 1c15 -55 23 -76 33 -104l103 -275c31 -81 72 -191 95 -222c11 -16 32 -20 52 -22v-17c-20 2 -36 4 -77 4c-59 0 -100 -5 -116 -6zM267 438l-55 -142c-10 -27 -11 -30 -15 -38c37 -6 84 -6 85 -6l45 1c9 0 57 1 73 2
c-4 11 -17 49 -22 59l-35 90c-7 17 -38 89 -46 106c-11 -25 -25 -61 -30 -72zM353 742c0 21 17 38 37 38c21 0 38 -18 38 -38s-17 -37 -38 -37c-20 0 -37 16 -37 37zM198 742c0 20 17 38 38 38c22 0 37 -18 37 -38c0 -19 -16 -37 -37 -37s-38 17 -38 37z" />
    <glyph glyph-name="Agrave" unicode="&#xc0;" horiz-adv-x="625" 
d="M422 -2v16c21 4 49 10 49 32c0 20 -18 69 -22 78l-36 98c-28 4 -64 4 -92 4h-39c-30 1 -74 -1 -102 -6l-36 -90c-19 -45 -24 -58 -24 -71c0 -20 9 -37 78 -47v-16c-24 3 -49 7 -97 7c-35 0 -65 -2 -89 -4v14c28 7 43 21 45 23c24 20 84 162 99 203l78 187
c29 67 61 142 79 204c0 2 2 8 3 9l16 1c15 -55 23 -76 33 -104l103 -275c31 -81 72 -191 95 -222c11 -16 32 -20 52 -22v-17c-20 2 -36 4 -77 4c-59 0 -100 -5 -116 -6zM267 438l-55 -142c-10 -27 -11 -30 -15 -38c37 -6 84 -6 85 -6l45 1c9 0 57 1 73 2
c-4 11 -17 49 -22 59l-35 90c-7 17 -38 89 -46 106c-11 -25 -25 -61 -30 -72zM307 855l96 -174h-23l-141 174h68z" />
    <glyph glyph-name="Aring" unicode="&#xc5;" horiz-adv-x="625" 
d="M422 -2v16c21 4 49 10 49 32c0 20 -18 69 -22 78l-36 98c-28 4 -64 4 -92 4h-39c-30 1 -74 -1 -102 -6l-36 -90c-19 -45 -24 -58 -24 -71c0 -20 9 -37 78 -47v-16c-24 3 -49 7 -97 7c-35 0 -65 -2 -89 -4v14c28 7 43 21 45 23c24 20 84 162 99 203l78 187
c29 67 61 142 79 204c0 2 2 8 3 9l16 1c15 -55 23 -76 33 -104l103 -275c31 -81 72 -191 95 -222c11 -16 32 -20 52 -22v-17c-20 2 -36 4 -77 4c-59 0 -100 -5 -116 -6zM267 438l-55 -142c-10 -27 -11 -30 -15 -38c37 -6 84 -6 85 -6l45 1c9 0 57 1 73 2
c-4 11 -17 49 -22 59l-35 90c-7 17 -38 89 -46 106c-11 -25 -25 -61 -30 -72zM235 770c0 42 35 77 78 77c44 0 78 -36 78 -77s-33 -78 -78 -78c-43 0 -78 35 -78 78zM260 770c0 -30 24 -53 53 -53s53 23 53 53c0 28 -23 53 -53 53s-53 -24 -53 -53z" />
    <glyph glyph-name="Atilde" unicode="&#xc3;" horiz-adv-x="625" 
d="M422 -2v16c21 4 49 10 49 32c0 20 -18 69 -22 78l-36 98c-28 4 -64 4 -92 4h-39c-30 1 -74 -1 -102 -6l-36 -90c-19 -45 -24 -58 -24 -71c0 -20 9 -37 78 -47v-16c-24 3 -49 7 -97 7c-35 0 -65 -2 -89 -4v14c28 7 43 21 45 23c24 20 84 162 99 203l78 187
c29 67 61 142 79 204c0 2 2 8 3 9l16 1c15 -55 23 -76 33 -104l103 -275c31 -81 72 -191 95 -222c11 -16 32 -20 52 -22v-17c-20 2 -36 4 -77 4c-59 0 -100 -5 -116 -6zM267 438l-55 -142c-10 -27 -11 -30 -15 -38c37 -6 84 -6 85 -6l45 1c9 0 57 1 73 2
c-4 11 -17 49 -22 59l-35 90c-7 17 -38 89 -46 106c-11 -25 -25 -61 -30 -72zM429 797h20c-2 -97 -72 -97 -80 -97c-28 0 -43 9 -83 33c-27 16 -32 19 -46 19c-20 0 -44 -15 -43 -52h-20c4 52 24 97 81 97c26 0 43 -11 73 -30c20 -13 35 -23 53 -23c21 0 44 16 45 53z" />
    <glyph glyph-name="Ccedilla" unicode="&#xc7;" horiz-adv-x="625" 
d="M588 98c-4 -11 -21 -71 -21 -72c-50 -15 -114 -33 -189 -33c-162 0 -335 113 -335 327c0 228 193 322 354 322c63 0 113 -17 131 -24c9 -3 26 -9 44 -9c3 0 15 3 18 3c4 0 6 -4 6 -4c0 -1 -5 -26 -7 -28c-8 -28 -14 -62 -18 -93c-13 2 -15 8 -15 21c-1 31 -4 36 -8 42
c-16 25 -95 66 -172 66c-139 0 -250 -107 -250 -295c0 -241 194 -306 269 -306c114 0 152 67 180 117c6 11 8 14 13 14c4 0 9 -2 9 -9c0 -8 -7 -32 -9 -39zM330 10h25l-25 -47c39 -13 70 -36 70 -77c0 -64 -75 -107 -174 -102v20c120 3 123 52 123 64c0 38 -37 50 -77 52
c9 13 50 72 58 90z" />
    <glyph glyph-name="Eacute" unicode="&#xc9;" horiz-adv-x="563" 
d="M525 143h15c-12 -75 -20 -104 -41 -148c-19 2 -73 3 -122 3s-94 2 -95 2c-93 0 -200 -4 -263 -7l1 17c57 12 59 13 65 54c7 49 12 219 11 252l-3 155c-3 134 -7 134 -66 146c0 6 0 8 1 13h313c34 0 106 2 159 4c-2 -36 -10 -126 -25 -126c-3 0 -12 1 -12 7s4 32 4 37
c0 54 -99 55 -145 55c-67 0 -111 -5 -150 -10c-4 -36 -9 -78 -9 -136c0 -42 0 -110 1 -127c12 -1 40 -1 72 -1c51 0 113 1 142 4c36 4 41 4 59 66l14 -1c0 -53 -1 -99 -1 -183h-17c-3 86 -21 90 -181 90c-49 0 -69 -2 -88 -5l-2 -69c-1 -39 -1 -140 9 -196
c19 -5 43 -15 127 -15c154 0 196 31 227 119zM208 681l96 174h68l-141 -174h-23z" />
    <glyph glyph-name="Ecircumflex" unicode="&#xca;" horiz-adv-x="563" 
d="M525 143h15c-12 -75 -20 -104 -41 -148c-19 2 -73 3 -122 3s-94 2 -95 2c-93 0 -200 -4 -263 -7l1 17c57 12 59 13 65 54c7 49 12 219 11 252l-3 155c-3 134 -7 134 -66 146c0 6 0 8 1 13h313c34 0 106 2 159 4c-2 -36 -10 -126 -25 -126c-3 0 -12 1 -12 7s4 32 4 37
c0 54 -99 55 -145 55c-67 0 -111 -5 -150 -10c-4 -36 -9 -78 -9 -136c0 -42 0 -110 1 -127c12 -1 40 -1 72 -1c51 0 113 1 142 4c36 4 41 4 59 66l14 -1c0 -53 -1 -99 -1 -183h-17c-3 86 -21 90 -181 90c-49 0 -69 -2 -88 -5l-2 -69c-1 -39 -1 -140 9 -196
c19 -5 43 -15 127 -15c154 0 196 31 227 119zM260 855h44l97 -174h-23l-95 105l-97 -105h-23z" />
    <glyph glyph-name="Edieresis" unicode="&#xcb;" horiz-adv-x="563" 
d="M525 143h15c-12 -75 -20 -104 -41 -148c-19 2 -73 3 -122 3s-94 2 -95 2c-93 0 -200 -4 -263 -7l1 17c57 12 59 13 65 54c7 49 12 219 11 252l-3 155c-3 134 -7 134 -66 146c0 6 0 8 1 13h313c34 0 106 2 159 4c-2 -36 -10 -126 -25 -126c-3 0 -12 1 -12 7s4 32 4 37
c0 54 -99 55 -145 55c-67 0 -111 -5 -150 -10c-4 -36 -9 -78 -9 -136c0 -42 0 -110 1 -127c12 -1 40 -1 72 -1c51 0 113 1 142 4c36 4 41 4 59 66l14 -1c0 -53 -1 -99 -1 -183h-17c-3 86 -21 90 -181 90c-49 0 -69 -2 -88 -5l-2 -69c-1 -39 -1 -140 9 -196
c19 -5 43 -15 127 -15c154 0 196 31 227 119zM322 742c0 21 17 38 37 38c21 0 38 -18 38 -38s-17 -37 -38 -37c-20 0 -37 16 -37 37zM167 742c0 20 17 38 38 38c22 0 37 -18 37 -38c0 -19 -16 -37 -37 -37s-38 17 -38 37z" />
    <glyph glyph-name="Egrave" unicode="&#xc8;" horiz-adv-x="563" 
d="M525 143h15c-12 -75 -20 -104 -41 -148c-19 2 -73 3 -122 3s-94 2 -95 2c-93 0 -200 -4 -263 -7l1 17c57 12 59 13 65 54c7 49 12 219 11 252l-3 155c-3 134 -7 134 -66 146c0 6 0 8 1 13h313c34 0 106 2 159 4c-2 -36 -10 -126 -25 -126c-3 0 -12 1 -12 7s4 32 4 37
c0 54 -99 55 -145 55c-67 0 -111 -5 -150 -10c-4 -36 -9 -78 -9 -136c0 -42 0 -110 1 -127c12 -1 40 -1 72 -1c51 0 113 1 142 4c36 4 41 4 59 66l14 -1c0 -53 -1 -99 -1 -183h-17c-3 86 -21 90 -181 90c-49 0 -69 -2 -88 -5l-2 -69c-1 -39 -1 -140 9 -196
c19 -5 43 -15 127 -15c154 0 196 31 227 119zM276 855l96 -174h-23l-141 174h68z" />
    <glyph glyph-name="Iacute" unicode="&#xcd;" horiz-adv-x="313" 
d="M20 612v21c19 -1 44 -2 69 -4c25 -1 50 -2 67 -2c3 0 129 5 135 6v-23c-56 0 -72 -5 -82 -23c-16 -31 -16 -190 -16 -235c0 -181 0 -201 2 -258c2 -59 2 -75 92 -77l-2 -19c-18 0 -108 3 -129 3c-37 0 -131 -3 -141 -3l-1 18c75 4 89 18 97 42c15 43 15 198 15 255
c0 97 -2 129 -5 212c-3 66 -7 85 -101 87zM83 681l96 174h68l-141 -174h-23z" />
    <glyph glyph-name="Icircumflex" unicode="&#xce;" horiz-adv-x="313" 
d="M20 612v21c19 -1 44 -2 69 -4c25 -1 50 -2 67 -2c3 0 129 5 135 6v-23c-56 0 -72 -5 -82 -23c-16 -31 -16 -190 -16 -235c0 -181 0 -201 2 -258c2 -59 2 -75 92 -77l-2 -19c-18 0 -108 3 -129 3c-37 0 -131 -3 -141 -3l-1 18c75 4 89 18 97 42c15 43 15 198 15 255
c0 97 -2 129 -5 212c-3 66 -7 85 -101 87zM135 855h44l97 -174h-23l-95 105l-97 -105h-23z" />
    <glyph glyph-name="Idieresis" unicode="&#xcf;" horiz-adv-x="313" 
d="M20 612v21c19 -1 44 -2 69 -4c25 -1 50 -2 67 -2c3 0 129 5 135 6v-23c-56 0 -72 -5 -82 -23c-16 -31 -16 -190 -16 -235c0 -181 0 -201 2 -258c2 -59 2 -75 92 -77l-2 -19c-18 0 -108 3 -129 3c-37 0 -131 -3 -141 -3l-1 18c75 4 89 18 97 42c15 43 15 198 15 255
c0 97 -2 129 -5 212c-3 66 -7 85 -101 87zM197 742c0 21 17 38 37 38c21 0 38 -18 38 -38s-17 -37 -38 -37c-20 0 -37 16 -37 37zM42 742c0 20 17 38 38 38c22 0 37 -18 37 -38c0 -19 -16 -37 -37 -37s-38 17 -38 37z" />
    <glyph glyph-name="Igrave" unicode="&#xcc;" horiz-adv-x="313" 
d="M20 612v21c19 -1 44 -2 69 -4c25 -1 50 -2 67 -2c3 0 129 5 135 6v-23c-56 0 -72 -5 -82 -23c-16 -31 -16 -190 -16 -235c0 -181 0 -201 2 -258c2 -59 2 -75 92 -77l-2 -19c-18 0 -108 3 -129 3c-37 0 -131 -3 -141 -3l-1 18c75 4 89 18 97 42c15 43 15 198 15 255
c0 97 -2 129 -5 212c-3 66 -7 85 -101 87zM151 855l96 -174h-23l-141 174h68z" />
    <glyph glyph-name="Ntilde" unicode="&#xd1;" horiz-adv-x="771" 
d="M16 613v20c58 -4 59 -5 85 -4l42 1c64 -81 180 -190 213 -222l288 -273c4 61 4 123 4 185v94c0 191 -15 192 -100 206l5 14c7 1 16 1 24 1c9 0 42 -1 66 -3s41 -1 47 -1l62 1l1 -17c-41 -6 -54 -17 -60 -44c-14 -64 -16 -295 -16 -379c0 -56 1 -151 5 -204l-20 1
c-33 71 -160 190 -203 230l-183 171c-17 13 -132 123 -136 125l-6 -299c-4 -181 5 -181 113 -202c0 -8 0 -10 -2 -18c-7 0 -27 1 -47 2s-40 2 -48 2s-31 -1 -54 -2s-46 -4 -55 -4c-10 0 -13 3 -13 12c0 10 4 10 13 11c49 5 56 18 58 161l3 233c2 124 3 192 -86 202zM502 797
h20c-2 -97 -72 -97 -80 -97c-28 0 -43 9 -83 33c-27 16 -32 19 -46 19c-20 0 -44 -15 -43 -52h-20c4 52 24 97 81 97c26 0 43 -11 73 -30c20 -13 35 -23 53 -23c21 0 44 16 45 53z" />
    <glyph glyph-name="Oacute" unicode="&#xd3;" horiz-adv-x="740" 
d="M41 315c0 182 160 327 338 327c157 0 322 -127 322 -325c0 -177 -140 -329 -339 -329c-210 0 -321 185 -321 327zM114 352c0 -175 135 -329 290 -329c104 0 223 76 223 255c0 183 -126 330 -279 330c-121 0 -234 -93 -234 -256zM297 681l96 174h68l-141 -174h-23z" />
    <glyph glyph-name="Ocircumflex" unicode="&#xd4;" horiz-adv-x="740" 
d="M41 315c0 182 160 327 338 327c157 0 322 -127 322 -325c0 -177 -140 -329 -339 -329c-210 0 -321 185 -321 327zM114 352c0 -175 135 -329 290 -329c104 0 223 76 223 255c0 183 -126 330 -279 330c-121 0 -234 -93 -234 -256zM349 855h44l97 -174h-23l-95 105l-97 -105
h-23z" />
    <glyph glyph-name="Odieresis" unicode="&#xd6;" horiz-adv-x="740" 
d="M41 315c0 182 160 327 338 327c157 0 322 -127 322 -325c0 -177 -140 -329 -339 -329c-210 0 -321 185 -321 327zM114 352c0 -175 135 -329 290 -329c104 0 223 76 223 255c0 183 -126 330 -279 330c-121 0 -234 -93 -234 -256zM411 742c0 21 17 38 37 38
c21 0 38 -18 38 -38s-17 -37 -38 -37c-20 0 -37 16 -37 37zM256 742c0 20 17 38 38 38c22 0 37 -18 37 -38c0 -19 -16 -37 -37 -37s-38 17 -38 37z" />
    <glyph glyph-name="Ograve" unicode="&#xd2;" horiz-adv-x="740" 
d="M41 315c0 182 160 327 338 327c157 0 322 -127 322 -325c0 -177 -140 -329 -339 -329c-210 0 -321 185 -321 327zM114 352c0 -175 135 -329 290 -329c104 0 223 76 223 255c0 183 -126 330 -279 330c-121 0 -234 -93 -234 -256zM365 855l96 -174h-23l-141 174h68z" />
    <glyph glyph-name="Otilde" unicode="&#xd5;" horiz-adv-x="740" 
d="M41 315c0 182 160 327 338 327c157 0 322 -127 322 -325c0 -177 -140 -329 -339 -329c-210 0 -321 185 -321 327zM114 352c0 -175 135 -329 290 -329c104 0 223 76 223 255c0 183 -126 330 -279 330c-121 0 -234 -93 -234 -256zM487 797h20c-2 -97 -72 -97 -80 -97
c-28 0 -43 9 -83 33c-27 16 -32 19 -46 19c-20 0 -44 -15 -43 -52h-20c4 52 24 97 81 97c26 0 43 -11 73 -30c20 -13 35 -23 53 -23c21 0 44 16 45 53z" />
    <glyph glyph-name="Scaron" unicode="&#x160;" horiz-adv-x="469" 
d="M62 -2l-20 1c1 55 -14 120 -27 163c7 2 9 3 16 4c19 -60 26 -83 64 -104c28 -15 90 -43 163 -43c20 0 125 0 125 111c0 97 -71 124 -158 157c-100 37 -176 78 -176 176c0 92 68 172 209 172c18 0 51 0 101 -11c20 -4 22 -4 25 -4c13 0 23 6 29 10c1 1 3 2 4 2
c3 0 7 -1 10 -2c-3 -21 -8 -75 -8 -77c0 -9 7 -54 6 -64l-15 -1c-8 109 -116 127 -167 127c-128 0 -133 -103 -133 -122c0 -85 70 -111 150 -142c78 -30 188 -72 188 -193c0 -90 -71 -166 -217 -166c-12 0 -69 0 -143 20c-9 2 -13 3 -16 3c-13 0 -11 -11 -10 -17zM267 681
h-44l-97 174h23l96 -106l96 106h23z" />
    <glyph glyph-name="Uacute" unicode="&#xda;" horiz-adv-x="719" 
d="M21 608l2 18c23 -1 47 -1 70 -1c82 0 83 0 163 4l5 -16c-64 -8 -76 -19 -84 -35c-15 -27 -15 -184 -15 -229c0 -92 1 -161 10 -204c25 -116 164 -122 195 -122c47 0 178 16 207 103c25 72 27 225 27 307c0 175 -19 175 -86 175l-2 17c15 2 39 3 49 3c36 0 105 0 141 -1
v-20c-64 -3 -64 -9 -65 -93c-4 -248 -13 -363 -44 -422c-50 -93 -200 -102 -253 -102c-121 0 -248 50 -248 204c0 34 2 181 2 213c0 74 -2 144 -13 180c-5 15 -6 15 -61 21zM317 681l96 174h68l-141 -174h-23z" />
    <glyph glyph-name="Ucircumflex" unicode="&#xdb;" horiz-adv-x="719" 
d="M21 608l2 18c23 -1 47 -1 70 -1c82 0 83 0 163 4l5 -16c-64 -8 -76 -19 -84 -35c-15 -27 -15 -184 -15 -229c0 -92 1 -161 10 -204c25 -116 164 -122 195 -122c47 0 178 16 207 103c25 72 27 225 27 307c0 175 -19 175 -86 175l-2 17c15 2 39 3 49 3c36 0 105 0 141 -1
v-20c-64 -3 -64 -9 -65 -93c-4 -248 -13 -363 -44 -422c-50 -93 -200 -102 -253 -102c-121 0 -248 50 -248 204c0 34 2 181 2 213c0 74 -2 144 -13 180c-5 15 -6 15 -61 21zM338 855h44l97 -174h-23l-95 105l-97 -105h-23z" />
    <glyph glyph-name="Udieresis" unicode="&#xdc;" horiz-adv-x="719" 
d="M21 608l2 18c23 -1 47 -1 70 -1c82 0 83 0 163 4l5 -16c-64 -8 -76 -19 -84 -35c-15 -27 -15 -184 -15 -229c0 -92 1 -161 10 -204c25 -116 164 -122 195 -122c47 0 178 16 207 103c25 72 27 225 27 307c0 175 -19 175 -86 175l-2 17c15 2 39 3 49 3c36 0 105 0 141 -1
v-20c-64 -3 -64 -9 -65 -93c-4 -248 -13 -363 -44 -422c-50 -93 -200 -102 -253 -102c-121 0 -248 50 -248 204c0 34 2 181 2 213c0 74 -2 144 -13 180c-5 15 -6 15 -61 21zM400 742c0 21 17 38 37 38c21 0 38 -18 38 -38s-17 -37 -38 -37c-20 0 -37 16 -37 37zM245 742
c0 20 17 38 38 38c22 0 37 -18 37 -38c0 -19 -16 -37 -37 -37s-38 17 -38 37z" />
    <glyph glyph-name="Ugrave" unicode="&#xd9;" horiz-adv-x="719" 
d="M21 608l2 18c23 -1 47 -1 70 -1c82 0 83 0 163 4l5 -16c-64 -8 -76 -19 -84 -35c-15 -27 -15 -184 -15 -229c0 -92 1 -161 10 -204c25 -116 164 -122 195 -122c47 0 178 16 207 103c25 72 27 225 27 307c0 175 -19 175 -86 175l-2 17c15 2 39 3 49 3c36 0 105 0 141 -1
v-20c-64 -3 -64 -9 -65 -93c-4 -248 -13 -363 -44 -422c-50 -93 -200 -102 -253 -102c-121 0 -248 50 -248 204c0 34 2 181 2 213c0 74 -2 144 -13 180c-5 15 -6 15 -61 21zM354 855l96 -174h-23l-141 174h68z" />
    <glyph glyph-name="Yacute" unicode="&#xdd;" 
d="M9 610l-3 17h48c10 0 61 -3 72 -3c28 0 59 2 92 3l23 -1l-2 -19c-37 -3 -59 -4 -59 -19c0 -24 164 -236 188 -264c9 12 13 17 44 63l37 56c21 31 68 105 68 132c0 34 -46 33 -66 32l2 19l41 -2c10 0 55 -2 64 -2c14 0 81 2 96 2l-1 -20c-60 -3 -79 -15 -169 -151l-54 -81
c-8 -13 -50 -80 -51 -80l2 -158c0 -106 1 -106 35 -115c18 -4 41 -10 52 -13l-1 -13c-7 0 -10 1 -37 3l-30 2c-10 1 -21 2 -32 2h-21c-8 0 -33 -2 -59 -4c-25 -3 -50 -5 -60 -5v16c23 1 53 4 68 20c13 12 16 15 16 200c0 26 0 49 -1 60l-40 59c-35 50 -77 106 -100 134
c-98 122 -102 127 -162 130zM291 681l96 174h68l-141 -174h-23z" />
    <glyph glyph-name="Ydieresis" unicode="&#x178;" 
d="M9 610l-3 17h48c10 0 61 -3 72 -3c28 0 59 2 92 3l23 -1l-2 -19c-37 -3 -59 -4 -59 -19c0 -24 164 -236 188 -264c9 12 13 17 44 63l37 56c21 31 68 105 68 132c0 34 -46 33 -66 32l2 19l41 -2c10 0 55 -2 64 -2c14 0 81 2 96 2l-1 -20c-60 -3 -79 -15 -169 -151l-54 -81
c-8 -13 -50 -80 -51 -80l2 -158c0 -106 1 -106 35 -115c18 -4 41 -10 52 -13l-1 -13c-7 0 -10 1 -37 3l-30 2c-10 1 -21 2 -32 2h-21c-8 0 -33 -2 -59 -4c-25 -3 -50 -5 -60 -5v16c23 1 53 4 68 20c13 12 16 15 16 200c0 26 0 49 -1 60l-40 59c-35 50 -77 106 -100 134
c-98 122 -102 127 -162 130zM374 742c0 21 17 38 37 38c21 0 38 -18 38 -38s-17 -37 -38 -37c-20 0 -37 16 -37 37zM219 742c0 20 17 38 38 38c22 0 37 -18 37 -38c0 -19 -16 -37 -37 -37s-38 17 -38 37z" />
    <glyph glyph-name="Zcaron" unicode="&#x17d;" horiz-adv-x="615" 
d="M410 0h-252c-51 0 -103 -2 -154 -6c0 4 1 8 1 12c175 181 331 380 473 588c-50 3 -143 4 -187 4c-201 0 -232 -10 -270 -92l-14 7c11 36 19 71 21 79l10 47c2 7 3 12 8 12c4 0 5 -2 7 -5c6 -10 15 -16 35 -18c29 -4 57 -5 141 -5c153 0 219 1 364 5v-9
c-77 -102 -170 -216 -178 -225l-109 -138c-7 -8 -32 -41 -38 -49c-41 -47 -100 -128 -141 -175c22 -4 47 -9 129 -9c163 0 208 8 269 32c42 17 57 32 74 78l15 -9c-3 -6 -48 -119 -58 -141c-3 0 -6 0 -9 1c-1 9 -3 16 -137 16zM340 681h-44l-97 174h23l96 -106l96 106h23z
" />
    <glyph glyph-name="aacute" unicode="&#xe1;" horiz-adv-x="375" 
d="M120 288l-60 -27c-2 8 -4 16 -4 23c0 55 128 94 153 94c20 0 52 -24 64 -35c13 -13 30 -31 30 -102c0 -22 -1 -43 -2 -65l-2 -37c-2 -26 -2 -30 -2 -42c0 -7 0 -66 27 -66c20 0 42 10 51 14v-20l-72 -29c-17 -6 -19 -7 -24 -7c-16 0 -33 26 -40 50
c-22 -12 -88 -50 -139 -50c-60 0 -60 53 -60 69c0 48 11 63 34 75c58 29 135 39 164 43l2 60v16c0 57 -40 90 -79 90c-16 0 -46 -10 -46 -33c0 -6 2 -13 5 -21zM236 57c-2 23 2 75 3 92c-89 6 -143 -28 -143 -66c0 -25 14 -61 45 -61c24 0 62 19 95 35zM114 434l96 174h68
l-141 -174h-23z" />
    <glyph glyph-name="acircumflex" unicode="&#xe2;" horiz-adv-x="375" 
d="M120 288l-60 -27c-2 8 -4 16 -4 23c0 55 128 94 153 94c20 0 52 -24 64 -35c13 -13 30 -31 30 -102c0 -22 -1 -43 -2 -65l-2 -37c-2 -26 -2 -30 -2 -42c0 -7 0 -66 27 -66c20 0 42 10 51 14v-20l-72 -29c-17 -6 -19 -7 -24 -7c-16 0 -33 26 -40 50
c-22 -12 -88 -50 -139 -50c-60 0 -60 53 -60 69c0 48 11 63 34 75c58 29 135 39 164 43l2 60v16c0 57 -40 90 -79 90c-16 0 -46 -10 -46 -33c0 -6 2 -13 5 -21zM236 57c-2 23 2 75 3 92c-89 6 -143 -28 -143 -66c0 -25 14 -61 45 -61c24 0 62 19 95 35zM166 608h44l97 -174
h-23l-95 105l-97 -105h-23z" />
    <glyph glyph-name="adieresis" unicode="&#xe4;" horiz-adv-x="375" 
d="M120 288l-60 -27c-2 8 -4 16 -4 23c0 55 128 94 153 94c20 0 52 -24 64 -35c13 -13 30 -31 30 -102c0 -22 -1 -43 -2 -65l-2 -37c-2 -26 -2 -30 -2 -42c0 -7 0 -66 27 -66c20 0 42 10 51 14v-20l-72 -29c-17 -6 -19 -7 -24 -7c-16 0 -33 26 -40 50
c-22 -12 -88 -50 -139 -50c-60 0 -60 53 -60 69c0 48 11 63 34 75c58 29 135 39 164 43l2 60v16c0 57 -40 90 -79 90c-16 0 -46 -10 -46 -33c0 -6 2 -13 5 -21zM236 57c-2 23 2 75 3 92c-89 6 -143 -28 -143 -66c0 -25 14 -61 45 -61c24 0 62 19 95 35zM228 495
c0 21 17 38 37 38c21 0 38 -18 38 -38s-17 -37 -38 -37c-20 0 -37 16 -37 37zM73 495c0 20 17 38 38 38c22 0 37 -18 37 -38c0 -19 -16 -37 -37 -37s-38 17 -38 37z" />
    <glyph glyph-name="agrave" unicode="&#xe0;" horiz-adv-x="375" 
d="M120 288l-60 -27c-2 8 -4 16 -4 23c0 55 128 94 153 94c20 0 52 -24 64 -35c13 -13 30 -31 30 -102c0 -22 -1 -43 -2 -65l-2 -37c-2 -26 -2 -30 -2 -42c0 -7 0 -66 27 -66c20 0 42 10 51 14v-20l-72 -29c-17 -6 -19 -7 -24 -7c-16 0 -33 26 -40 50
c-22 -12 -88 -50 -139 -50c-60 0 -60 53 -60 69c0 48 11 63 34 75c58 29 135 39 164 43l2 60v16c0 57 -40 90 -79 90c-16 0 -46 -10 -46 -33c0 -6 2 -13 5 -21zM236 57c-2 23 2 75 3 92c-89 6 -143 -28 -143 -66c0 -25 14 -61 45 -61c24 0 62 19 95 35zM182 608l96 -174h-23
l-141 174h68z" />
    <glyph glyph-name="aring" unicode="&#xe5;" horiz-adv-x="375" 
d="M120 288l-60 -27c-2 8 -4 16 -4 23c0 55 128 94 153 94c20 0 52 -24 64 -35c13 -13 30 -31 30 -102c0 -22 -1 -43 -2 -65l-2 -37c-2 -26 -2 -30 -2 -42c0 -7 0 -66 27 -66c20 0 42 10 51 14v-20l-72 -29c-17 -6 -19 -7 -24 -7c-16 0 -33 26 -40 50
c-22 -12 -88 -50 -139 -50c-60 0 -60 53 -60 69c0 48 11 63 34 75c58 29 135 39 164 43l2 60v16c0 57 -40 90 -79 90c-16 0 -46 -10 -46 -33c0 -6 2 -13 5 -21zM236 57c-2 23 2 75 3 92c-89 6 -143 -28 -143 -66c0 -25 14 -61 45 -61c24 0 62 19 95 35zM110 523
c0 42 35 77 78 77c44 0 78 -36 78 -77s-33 -78 -78 -78c-43 0 -78 35 -78 78zM135 523c0 -30 24 -53 53 -53s53 23 53 53c0 28 -23 53 -53 53s-53 -24 -53 -53z" />
    <glyph glyph-name="atilde" unicode="&#xe3;" horiz-adv-x="375" 
d="M120 288l-60 -27c-2 8 -4 16 -4 23c0 55 128 94 153 94c20 0 52 -24 64 -35c13 -13 30 -31 30 -102c0 -22 -1 -43 -2 -65l-2 -37c-2 -26 -2 -30 -2 -42c0 -7 0 -66 27 -66c20 0 42 10 51 14v-20l-72 -29c-17 -6 -19 -7 -24 -7c-16 0 -33 26 -40 50
c-22 -12 -88 -50 -139 -50c-60 0 -60 53 -60 69c0 48 11 63 34 75c58 29 135 39 164 43l2 60v16c0 57 -40 90 -79 90c-16 0 -46 -10 -46 -33c0 -6 2 -13 5 -21zM236 57c-2 23 2 75 3 92c-89 6 -143 -28 -143 -66c0 -25 14 -61 45 -61c24 0 62 19 95 35zM304 550h20
c-2 -97 -72 -97 -80 -97c-28 0 -43 9 -83 33c-27 16 -32 19 -46 19c-20 0 -44 -15 -43 -52h-20c4 52 24 97 81 97c26 0 43 -11 73 -30c20 -13 35 -23 53 -23c21 0 44 16 45 53z" />
    <glyph glyph-name="ccedilla" unicode="&#xe7;" horiz-adv-x="375" 
d="M350 61l7 -14c-36 -30 -85 -54 -134 -54c-51 0 -116 23 -148 59c-21 24 -32 74 -32 113c0 131 122 217 202 217c27 0 114 -22 114 -40c0 -5 -23 -46 -36 -46c-6 0 -30 15 -35 17c-14 6 -56 22 -88 22c-83 0 -99 -70 -99 -129c0 -130 101 -177 155 -177c40 0 75 21 94 32z
M205 10h25l-25 -47c39 -13 70 -36 70 -77c0 -64 -75 -107 -174 -102v20c120 3 123 52 123 64c0 38 -37 50 -77 52c9 13 50 72 58 90z" />
    <glyph glyph-name="eacute" unicode="&#xe9;" horiz-adv-x="365" 
d="M345 254l-244 -53c3 -57 7 -85 35 -122c38 -49 77 -49 91 -49c26 0 59 7 102 38l9 -12c-28 -20 -85 -61 -151 -61c-100 0 -148 91 -148 174c0 156 127 204 153 204c36 0 97 -13 130 -89c3 -7 6 -12 22 -12zM102 220l64 14c4 2 52 13 64 15c35 8 39 9 39 16
c0 11 -31 77 -96 77c-56 0 -68 -84 -71 -122zM140 434l96 174h68l-141 -174h-23z" />
    <glyph glyph-name="ecircumflex" unicode="&#xea;" horiz-adv-x="365" 
d="M345 254l-244 -53c3 -57 7 -85 35 -122c38 -49 77 -49 91 -49c26 0 59 7 102 38l9 -12c-28 -20 -85 -61 -151 -61c-100 0 -148 91 -148 174c0 156 127 204 153 204c36 0 97 -13 130 -89c3 -7 6 -12 22 -12zM102 220l64 14c4 2 52 13 64 15c35 8 39 9 39 16
c0 11 -31 77 -96 77c-56 0 -68 -84 -71 -122zM161 608h44l97 -174h-23l-95 105l-97 -105h-23z" />
    <glyph glyph-name="edieresis" unicode="&#xeb;" horiz-adv-x="365" 
d="M345 254l-244 -53c3 -57 7 -85 35 -122c38 -49 77 -49 91 -49c26 0 59 7 102 38l9 -12c-28 -20 -85 -61 -151 -61c-100 0 -148 91 -148 174c0 156 127 204 153 204c36 0 97 -13 130 -89c3 -7 6 -12 22 -12zM102 220l64 14c4 2 52 13 64 15c35 8 39 9 39 16
c0 11 -31 77 -96 77c-56 0 -68 -84 -71 -122zM223 495c0 21 17 38 37 38c21 0 38 -18 38 -38s-17 -37 -38 -37c-20 0 -37 16 -37 37zM68 495c0 20 17 38 38 38c22 0 37 -18 37 -38c0 -19 -16 -37 -37 -37s-38 17 -38 37z" />
    <glyph glyph-name="egrave" unicode="&#xe8;" horiz-adv-x="365" 
d="M345 254l-244 -53c3 -57 7 -85 35 -122c38 -49 77 -49 91 -49c26 0 59 7 102 38l9 -12c-28 -20 -85 -61 -151 -61c-100 0 -148 91 -148 174c0 156 127 204 153 204c36 0 97 -13 130 -89c3 -7 6 -12 22 -12zM102 220l64 14c4 2 52 13 64 15c35 8 39 9 39 16
c0 11 -31 77 -96 77c-56 0 -68 -84 -71 -122zM177 608l96 -174h-23l-141 174h68z" />
    <glyph glyph-name="iacute" unicode="&#xed;" horiz-adv-x="240" 
d="M32 -2l2 15c20 2 42 5 47 15c6 12 9 130 9 155c0 93 -3 107 -11 116c-5 5 -47 3 -47 11c0 7 5 9 9 10c39 12 81 37 114 64c3 0 6 -1 9 -2c-10 -44 -16 -164 -16 -215c0 -22 1 -108 8 -132c4 -12 10 -13 33 -15c25 -1 27 -2 34 -3l6 -14zM47 434l96 174h68l-141 -174h-23z
" />
    <glyph glyph-name="icircumflex" unicode="&#xee;" horiz-adv-x="240" 
d="M32 -2l2 15c20 2 42 5 47 15c6 12 9 130 9 155c0 93 -3 107 -11 116c-5 5 -47 3 -47 11c0 7 5 9 9 10c39 12 81 37 114 64c3 0 6 -1 9 -2c-10 -44 -16 -164 -16 -215c0 -22 1 -108 8 -132c4 -12 10 -13 33 -15c25 -1 27 -2 34 -3l6 -14zM99 608h44l97 -174h-23l-95 105
l-97 -105h-23z" />
    <glyph glyph-name="idieresis" unicode="&#xef;" horiz-adv-x="240" 
d="M32 -2l2 15c20 2 42 5 47 15c6 12 9 130 9 155c0 93 -3 107 -11 116c-5 5 -47 3 -47 11c0 7 5 9 9 10c39 12 81 37 114 64c3 0 6 -1 9 -2c-10 -44 -16 -164 -16 -215c0 -22 1 -108 8 -132c4 -12 10 -13 33 -15c25 -1 27 -2 34 -3l6 -14zM161 495c0 21 17 38 37 38
c21 0 38 -18 38 -38s-17 -37 -38 -37c-20 0 -37 16 -37 37zM6 495c0 20 17 38 38 38c22 0 37 -18 37 -38c0 -19 -16 -37 -37 -37s-38 17 -38 37z" />
    <glyph glyph-name="igrave" unicode="&#xec;" horiz-adv-x="240" 
d="M32 -2l2 15c20 2 42 5 47 15c6 12 9 130 9 155c0 93 -3 107 -11 116c-5 5 -47 3 -47 11c0 7 5 9 9 10c39 12 81 37 114 64c3 0 6 -1 9 -2c-10 -44 -16 -164 -16 -215c0 -22 1 -108 8 -132c4 -12 10 -13 33 -15c25 -1 27 -2 34 -3l6 -14zM115 608l96 -174h-23l-141 174h68
z" />
    <glyph glyph-name="ntilde" unicode="&#xf1;" horiz-adv-x="469" 
d="M18 7l-1 14c55 10 57 21 60 41c6 38 7 118 7 145c0 105 -5 105 -64 111c0 3 0 6 -1 9c34 9 92 37 93 38s18 10 22 10c11 0 11 -26 11 -61c64 36 111 56 155 56c101 0 101 -77 101 -149v-116c0 -28 0 -69 6 -75s44 -12 50 -15l1 -15c-12 2 -33 6 -85 6
c-41 0 -79 -4 -98 -6v14c35 7 48 16 55 28c11 23 13 137 13 149c0 63 0 137 -76 137c-4 0 -54 0 -122 -35l-3 -130c-1 -76 -1 -84 2 -110c2 -19 3 -29 64 -36l-1 -15c-18 2 -54 4 -82 5h-107zM351 550h20c-2 -97 -72 -97 -80 -97c-28 0 -43 9 -83 33c-27 16 -32 19 -46 19
c-20 0 -44 -15 -43 -52h-20c4 52 24 97 81 97c26 0 43 -11 73 -30c20 -13 35 -23 53 -23c21 0 44 16 45 53z" />
    <glyph glyph-name="oacute" unicode="&#xf3;" horiz-adv-x="469" 
d="M38 183c0 116 93 191 204 191c102 0 189 -80 189 -185c0 -100 -75 -194 -194 -194c-78 0 -199 48 -199 188zM102 210c0 -90 58 -193 140 -193c67 0 123 59 123 151c0 89 -62 182 -147 182c-67 0 -116 -59 -116 -140zM161 434l96 174h68l-141 -174h-23z" />
    <glyph glyph-name="ocircumflex" unicode="&#xf4;" horiz-adv-x="469" 
d="M38 183c0 116 93 191 204 191c102 0 189 -80 189 -185c0 -100 -75 -194 -194 -194c-78 0 -199 48 -199 188zM102 210c0 -90 58 -193 140 -193c67 0 123 59 123 151c0 89 -62 182 -147 182c-67 0 -116 -59 -116 -140zM213 608h44l97 -174h-23l-95 105l-97 -105h-23z" />
    <glyph glyph-name="odieresis" unicode="&#xf6;" horiz-adv-x="469" 
d="M38 183c0 116 93 191 204 191c102 0 189 -80 189 -185c0 -100 -75 -194 -194 -194c-78 0 -199 48 -199 188zM102 210c0 -90 58 -193 140 -193c67 0 123 59 123 151c0 89 -62 182 -147 182c-67 0 -116 -59 -116 -140zM275 495c0 21 17 38 37 38c21 0 38 -18 38 -38
s-17 -37 -38 -37c-20 0 -37 16 -37 37zM120 495c0 20 17 38 38 38c22 0 37 -18 37 -38c0 -19 -16 -37 -37 -37s-38 17 -38 37z" />
    <glyph glyph-name="ograve" unicode="&#xf2;" horiz-adv-x="469" 
d="M38 183c0 116 93 191 204 191c102 0 189 -80 189 -185c0 -100 -75 -194 -194 -194c-78 0 -199 48 -199 188zM102 210c0 -90 58 -193 140 -193c67 0 123 59 123 151c0 89 -62 182 -147 182c-67 0 -116 -59 -116 -140zM229 608l96 -174h-23l-141 174h68z" />
    <glyph glyph-name="otilde" unicode="&#xf5;" horiz-adv-x="469" 
d="M38 183c0 116 93 191 204 191c102 0 189 -80 189 -185c0 -100 -75 -194 -194 -194c-78 0 -199 48 -199 188zM102 210c0 -90 58 -193 140 -193c67 0 123 59 123 151c0 89 -62 182 -147 182c-67 0 -116 -59 -116 -140zM351 550h20c-2 -97 -72 -97 -80 -97
c-28 0 -43 9 -83 33c-27 16 -32 19 -46 19c-20 0 -44 -15 -43 -52h-20c4 52 24 97 81 97c26 0 43 -11 73 -30c20 -13 35 -23 53 -23c21 0 44 16 45 53z" />
    <glyph glyph-name="scaron" unicode="&#x161;" horiz-adv-x="323" 
d="M27 110l17 -1c0 -15 46 -85 117 -85c14 0 69 1 69 52c0 53 -57 80 -78 91l-37 17c-30 15 -70 38 -70 82s48 104 132 104c17 0 38 -2 78 -7l16 -83h-17c-9 34 -63 69 -94 69c-35 0 -58 -23 -58 -57c0 -28 16 -41 56 -60l30 -14c33 -16 98 -47 98 -116
c0 -19 -7 -51 -28 -64c-59 -37 -91 -41 -121 -41c-39 0 -72 11 -102 20c2 10 4 18 4 28c0 14 -7 49 -12 65zM194 434h-44l-97 174h23l96 -106l96 106h23z" />
    <glyph glyph-name="uacute" unicode="&#xfa;" horiz-adv-x="458" 
d="M10 296v20l108 60c8 4 8 4 10 4c4 0 7 -3 7 -9l-6 -84c-2 -33 -6 -92 -6 -123c0 -47 0 -128 83 -128c37 0 75 21 116 41c0 6 0 37 1 48l3 100c3 88 -8 93 -61 95l-1 18l130 30c-3 -54 -12 -189 -12 -236c0 -55 3 -80 9 -100c21 1 36 5 55 12v-22c-32 -9 -84 -26 -112 -36
c-9 28 -11 47 -13 69c-50 -25 -123 -61 -166 -61c-21 0 -96 12 -91 145l4 110c1 29 2 60 -21 60c-9 0 -17 -4 -37 -13zM187 434l96 174h68l-141 -174h-23z" />
    <glyph glyph-name="ucircumflex" unicode="&#xfb;" horiz-adv-x="458" 
d="M10 296v20l108 60c8 4 8 4 10 4c4 0 7 -3 7 -9l-6 -84c-2 -33 -6 -92 -6 -123c0 -47 0 -128 83 -128c37 0 75 21 116 41c0 6 0 37 1 48l3 100c3 88 -8 93 -61 95l-1 18l130 30c-3 -54 -12 -189 -12 -236c0 -55 3 -80 9 -100c21 1 36 5 55 12v-22c-32 -9 -84 -26 -112 -36
c-9 28 -11 47 -13 69c-50 -25 -123 -61 -166 -61c-21 0 -96 12 -91 145l4 110c1 29 2 60 -21 60c-9 0 -17 -4 -37 -13zM208 608h44l97 -174h-23l-95 105l-97 -105h-23z" />
    <glyph glyph-name="udieresis" unicode="&#xfc;" horiz-adv-x="458" 
d="M10 296v20l108 60c8 4 8 4 10 4c4 0 7 -3 7 -9l-6 -84c-2 -33 -6 -92 -6 -123c0 -47 0 -128 83 -128c37 0 75 21 116 41c0 6 0 37 1 48l3 100c3 88 -8 93 -61 95l-1 18l130 30c-3 -54 -12 -189 -12 -236c0 -55 3 -80 9 -100c21 1 36 5 55 12v-22c-32 -9 -84 -26 -112 -36
c-9 28 -11 47 -13 69c-50 -25 -123 -61 -166 -61c-21 0 -96 12 -91 145l4 110c1 29 2 60 -21 60c-9 0 -17 -4 -37 -13zM270 495c0 21 17 38 37 38c21 0 38 -18 38 -38s-17 -37 -38 -37c-20 0 -37 16 -37 37zM115 495c0 20 17 38 38 38c22 0 37 -18 37 -38
c0 -19 -16 -37 -37 -37s-38 17 -38 37z" />
    <glyph glyph-name="ugrave" unicode="&#xf9;" horiz-adv-x="458" 
d="M10 296v20l108 60c8 4 8 4 10 4c4 0 7 -3 7 -9l-6 -84c-2 -33 -6 -92 -6 -123c0 -47 0 -128 83 -128c37 0 75 21 116 41c0 6 0 37 1 48l3 100c3 88 -8 93 -61 95l-1 18l130 30c-3 -54 -12 -189 -12 -236c0 -55 3 -80 9 -100c21 1 36 5 55 12v-22c-32 -9 -84 -26 -112 -36
c-9 28 -11 47 -13 69c-50 -25 -123 -61 -166 -61c-21 0 -96 12 -91 145l4 110c1 29 2 60 -21 60c-9 0 -17 -4 -37 -13zM224 608l96 -174h-23l-141 174h68z" />
    <glyph glyph-name="yacute" unicode="&#xfd;" horiz-adv-x="406" 
d="M11 341v15c24 -3 56 -3 67 -3c34 0 67 2 100 6l-1 -18c-20 -4 -38 -7 -38 -29c0 -27 28 -143 71 -257l32 58c22 38 79 153 79 189c0 25 -25 37 -68 42l7 16c48 -5 85 -6 101 -6c26 0 37 1 48 3l-1 -16c-28 -5 -42 -26 -63 -69l-53 -110c-1 -3 -31 -60 -37 -72
c-106 -207 -118 -260 -144 -370h-104v17c64 15 83 47 126 145l38 85c-29 106 -62 232 -96 314c-21 54 -40 56 -64 60zM161 434l96 174h68l-141 -174h-23z" />
    <glyph glyph-name="ydieresis" unicode="&#xff;" horiz-adv-x="406" 
d="M11 341v15c24 -3 56 -3 67 -3c34 0 67 2 100 6l-1 -18c-20 -4 -38 -7 -38 -29c0 -27 28 -143 71 -257l32 58c22 38 79 153 79 189c0 25 -25 37 -68 42l7 16c48 -5 85 -6 101 -6c26 0 37 1 48 3l-1 -16c-28 -5 -42 -26 -63 -69l-53 -110c-1 -3 -31 -60 -37 -72
c-106 -207 -118 -260 -144 -370h-104v17c64 15 83 47 126 145l38 85c-29 106 -62 232 -96 314c-21 54 -40 56 -64 60zM244 495c0 21 17 38 37 38c21 0 38 -18 38 -38s-17 -37 -38 -37c-20 0 -37 16 -37 37zM89 495c0 20 17 38 38 38c22 0 37 -18 37 -38
c0 -19 -16 -37 -37 -37s-38 17 -38 37z" />
    <glyph glyph-name="zcaron" unicode="&#x17e;" horiz-adv-x="406" 
d="M20 -6l-7 14c110 106 211 242 275 329h-115c-69 1 -125 -11 -140 -56h-19c19 39 30 66 29 96c26 -15 37 -17 140 -17l115 -1c23 0 60 1 95 1c-8 -12 -15 -23 -34 -45l-77 -92l-60 -70c-7 -7 -94 -113 -101 -127c31 -3 63 -4 94 -4c78 0 143 6 165 88h15
c-4 -34 -21 -91 -30 -117c-2 0 -9 1 -10 2c-22 4 -35 5 -67 5l-178 -1c-25 0 -66 -1 -90 -5zM236 434h-44l-97 174h23l96 -106l96 106h23z" />
    </font>
</defs>
</svg>
